<svg xmlns="http://www.w3.org/2000/svg" viewBox="0 0 11.22 12.24"><defs><style>.cls-1{fill:#f68c20;}</style></defs><title>icon-copy</title><g id="Layer_2" data-name="Layer 2"><g id="Layer_1-2" data-name="Layer 1"><path class="cls-1" d="M7.78,12.24H1.4A1.4,1.4,0,0,1,0,10.84V4a1.4,1.4,0,0,1,1.4-1.4h.26a.38.38,0,0,1,0,.76H1.4A.64.64,0,0,0,.76,4v6.89a.64.64,0,0,0,.64.63H7.78a.63.63,0,0,0,.63-.63v-.26a.39.39,0,0,1,.39-.38.38.38,0,0,1,.38.38v.26a1.4,1.4,0,0,1-1.4,1.4Z"/><path class="cls-1" d="M9.82,9.18H4.46a1.4,1.4,0,0,1-1.4-1.4V1.4A1.4,1.4,0,0,1,4.46,0H9.82a1.4,1.4,0,0,1,1.4,1.4V7.78a1.4,1.4,0,0,1-1.4,1.4ZM4.46.76a.64.64,0,0,0-.64.64V7.78a.64.64,0,0,0,.64.63H9.82a.63.63,0,0,0,.63-.63V1.4A.64.64,0,0,0,9.82.76Z"/></g></g></svg>
