<?xml version="1.0" encoding="utf-8"?>
<!-- Generator: Adobe Illustrator 23.0.1, SVG Export Plug-In . SVG Version: 6.00 Build 0)  -->
<svg version="1.1" id="Layer_1" xmlns="http://www.w3.org/2000/svg" xmlns:xlink="http://www.w3.org/1999/xlink" x="0px" y="0px"
	 viewBox="0 0 26.4 26.4" style="enable-background:new 0 0 26.4 26.4;" xml:space="preserve">
<style type="text/css">
	.st0{fill:#F68C20;}
</style>
<title>icon-send2</title>
<g>
	<g id="Layer_1-2">
		<path class="st0" d="M25.8,3.5c0.3,0,0.7,0.2,0.7,0.5c0,0.2,0,0.3-0.1,0.5C25.9,5.2,25.4,6,25,6.7l-9.3,15.9l-0.1,0.2
			c-0.2,0.2-0.4,0.2-0.7,0l-2.8-2.3l-3.8-3.1C8,17.2,8,17.2,8.3,17l10.4-7.8C18.8,9.1,18.9,9.1,19,9s0.1-0.3,0-0.4
			c-0.1-0.1-0.2-0.1-0.4-0.1c-0.1,0-0.1,0.1-0.2,0.1L7,15.9c-0.2,0.1-0.3,0.3-0.3,0.5c-0.2,1.3-0.4,2.5-0.6,3.8
			c0,0.1-0.1,0.2-0.1,0.3c-0.1-0.1-0.1-0.2-0.2-0.3c-0.4-1.8-0.7-3.6-1.1-5.4c0-0.2-0.1-0.3-0.2-0.4l-4.2-3.4
			C0.1,10.8,0,10.6,0,10.4c0.1-0.2,0.2-0.3,0.4-0.3l22.2-5.9c1-0.3,2-0.5,3-0.7L25.8,3.5z"/>
		<path class="st0" d="M9.8,19.8l-0.9,0.5l-1.3,0.7c-0.2,0.1-0.3,0.1-0.3-0.2c0.1-0.9,0.3-1.8,0.4-2.8C8.4,18.7,9.1,19.3,9.8,19.8z"
			/>
	</g>
</g>
</svg>
