<svg xmlns="http://www.w3.org/2000/svg" viewBox="0 0 23.94 21.56"><defs><style>.cls-1{fill:#fff;}</style></defs><title>icon-receive</title><g id="Layer_2" data-name="Layer 2"><g id="Layer_1-2" data-name="Layer 1"><path class="cls-1" d="M11.94,21.56,9.82,19,.43,7.55c-.56-.67-.58-.68,0-1.36.68-.84,1.34-1.69,2.09-2.46A12.37,12.37,0,0,1,11.5,0a13.88,13.88,0,0,1,7,1.54,14.73,14.73,0,0,1,4.75,4.34,2.07,2.07,0,0,0,.38.49c.39.3.31.57,0,.9L12.4,21Zm.05-.82c.18-.29.31-.48.41-.67.61-1.23,1.21-2.46,1.81-3.69,1.11-2.27,2.23-4.53,3.34-6.8.28-.56.22-.72-.32-.9a16.89,16.89,0,0,0-10.45,0c-.65.2-.7.34-.39,1Q9,14.86,11.58,20.09A6.91,6.91,0,0,0,12,20.74ZM9.84,18.15l.08,0c-.06-.13-.1-.26-.16-.38C8.87,15.91,8,14.08,7.08,12.27c-.52-1-1.1-2-1.65-3a.41.41,0,0,1,0-.28c.13-.27-.06-.36-.24-.49a9.58,9.58,0,0,0-4-1.5A2.07,2.07,0,0,0,.7,7ZM23.22,7a1.83,1.83,0,0,0-.32,0,9.18,9.18,0,0,0-4.21,1.56c-.06,0-.18.12-.17.15.18.53-.31.76-.49,1.12-1.29,2.65-2.59,5.29-3.88,7.94-.06.12-.12.26-.18.39l.09,0Z"/></g></g></svg>