<?xml version="1.0" encoding="utf-8"?>
<!-- Generator: Adobe Illustrator 23.0.1, SVG Export Plug-In . SVG Version: 6.00 Build 0)  -->
<svg version="1.1" id="Layer_1" xmlns="http://www.w3.org/2000/svg" xmlns:xlink="http://www.w3.org/1999/xlink" x="0px" y="0px"
	 viewBox="0 0 48 48" style="enable-background:new 0 0 48 48;" xml:space="preserve">
<style type="text/css">
	.st0{fill:none;}
	.st1{fill:#FCCA3D;}
</style>
<g>
	<path class="st0" d="M0,48V0h48v48H0z"/>
	<g>
		<g id="surface1">
			<path class="st1" d="M46.7,37.2L28.1,5c-2.3-3.9-6-3.9-8.2,0L1.3,37.2c-2.3,3.9-0.4,7.1,4.1,7.1h37.1
				C47.1,44.3,49,41.1,46.7,37.2z M21.4,14.1c0.7-0.7,1.5-1.1,2.6-1.1c1,0,1.9,0.4,2.6,1.1c0.7,0.7,1,1.6,1,2.7
				c0,0.9-1.4,7.7-1.8,12.6h-3.3c-0.4-4.9-1.9-11.7-1.9-12.6C20.5,15.7,20.8,14.9,21.4,14.1z M26.5,37.6c-0.7,0.7-1.5,1-2.5,1
				s-1.8-0.3-2.5-1c-0.7-0.7-1-1.5-1-2.5c0-1,0.3-1.8,1-2.5c0.7-0.7,1.5-1,2.5-1s1.8,0.3,2.5,1c0.7,0.7,1,1.5,1,2.5
				C27.5,36.1,27.2,36.9,26.5,37.6z"/>
		</g>
	</g>
</g>
</svg>
