<svg xmlns="http://www.w3.org/2000/svg" viewBox="0 0 26.42 19.51"><defs><style>.cls-1{fill:#fff;}</style></defs><title>icon-send2</title><g id="Layer_2" data-name="Layer 2"><g id="Layer_1-2" data-name="Layer 1"><path class="cls-1" d="M25.75,0a.62.62,0,0,1,.57,1c-.43.76-.88,1.51-1.32,2.27l-9.26,15.9-.11.19c-.18.23-.38.24-.66,0l-2.82-2.26L8.32,14c-.28-.23-.28-.27,0-.49l10.44-7.8c.08-.06.19-.11.23-.19s.11-.29.05-.36a.56.56,0,0,0-.37-.14c-.06,0-.14.07-.21.11L7,12.44a.61.61,0,0,0-.3.47c-.17,1.27-.36,2.53-.55,3.79,0,.09-.09.17-.14.26-.05-.09-.14-.17-.15-.26-.38-1.82-.74-3.63-1.11-5.44a.82.82,0,0,0-.24-.41L.27,7.43A.5.5,0,0,1,0,6.9c.06-.22.25-.26.44-.31L22.62.69c1-.27,2-.45,3-.68Z"/><path class="cls-1" d="M9.78,16.39l-.94.53-1.29.72c-.22.12-.33.06-.3-.17.12-.9.26-1.8.4-2.79C8.41,15.23,9.06,15.81,9.78,16.39Z"/></g></g></svg>