<svg xmlns="http://www.w3.org/2000/svg" xmlns:xlink="http://www.w3.org/1999/xlink" viewBox="0 0 22.78 22.78"><defs><style>.cls-1{fill:url(#linear-gradient);}.cls-2{fill:#fff;}</style><linearGradient id="linear-gradient" y1="11.39" x2="22.78" y2="11.39" gradientUnits="userSpaceOnUse"><stop offset="0" stop-color="#127daf"/><stop offset="0.06" stop-color="#107da5"/><stop offset="0.35" stop-color="#097e7e"/><stop offset="0.61" stop-color="#047f62"/><stop offset="0.83" stop-color="#017f51"/><stop offset="1" stop-color="#007f4b"/></linearGradient></defs><title>icon-arrow-right</title><g id="Layer_2" data-name="Layer 2"><g id="Layer_1-2" data-name="Layer 1"><path class="cls-1" d="M11.39,0H22.78a0,0,0,0,1,0,0V22.78a0,0,0,0,1,0,0H11.39A11.39,11.39,0,0,1,0,11.39v0A11.39,11.39,0,0,1,11.39,0Z"/><path class="cls-2" d="M18.85,11.07,15.94,8.15a.46.46,0,0,0-.65.65l2.14,2.13H9.64a.46.46,0,0,0-.45.46.45.45,0,0,0,.45.45h7.79L15.29,14a.46.46,0,0,0,0,.65.47.47,0,0,0,.65,0l2.91-2.92a.45.45,0,0,0,0-.64Z"/></g></g></svg>