<svg xmlns="http://www.w3.org/2000/svg" xmlns:xlink="http://www.w3.org/1999/xlink" viewBox="0 0 161.6 46.57"><defs><style>.cls-1{fill:none;}.cls-2{fill:#fff;}.cls-3{clip-path:url(#clip-path);}.cls-4{fill:url(#linear-gradient);}.cls-5{fill:url(#linear-gradient-2);}</style><clipPath id="clip-path" transform="translate(0 -0.17)"><path class="cls-1" d="M9.93,0H47.64V38.07a5.23,5.23,0,0,1-5.23,5.23H9.93A5.23,5.23,0,0,1,4.7,38.07V5.23A5.23,5.23,0,0,1,9.93,0Z"/></clipPath><linearGradient id="linear-gradient" y1="32.76" x2="55.35" y2="32.76" gradientUnits="userSpaceOnUse"><stop offset="0" stop-color="#127daf"/><stop offset="0.06" stop-color="#107da5"/><stop offset="0.35" stop-color="#097e7e"/><stop offset="0.61" stop-color="#047f62"/><stop offset="0.83" stop-color="#017f51"/><stop offset="1" stop-color="#007f4b"/></linearGradient><linearGradient id="linear-gradient-2" x1="14.71" y1="32.94" x2="40.46" y2="32.94" xlink:href="#linear-gradient"/></defs><title>logo-white</title><g id="Layer_2" data-name="Layer 2"><g id="Layer_1-2" data-name="Layer 1"><path class="cls-2" d="M57.91,21.29l1.2-5.7c.14-.66.27-1.31.4-2,0-.21.12-.3.35-.29h4c.28,0,.33.09.28.33l-.36,1.7c2.5-2.93,7.63-2.66,9.19.85.22-.27.43-.54.66-.78a6.51,6.51,0,0,1,4.19-2,5.86,5.86,0,0,1,3.12.41,4.58,4.58,0,0,1,2.8,3.94,8.87,8.87,0,0,1-.3,2.76c-.6,2.9-1.21,5.81-1.82,8.71-.15.69-.15.69-.85.69H77.36c-.2,0-.33,0-.26-.29.3-1.41.58-2.82.87-4.23q.56-2.71,1.1-5.45A2.91,2.91,0,0,0,79,18.31a1.7,1.7,0,0,0-1.36-1.06A4.22,4.22,0,0,0,73.13,20c-.28,1.12-.46,2.25-.7,3.38l-1,4.84c-.1.47-.22.94-.3,1.41,0,.21-.1.28-.32.28H66.94c-.26,0-.27-.1-.23-.3l.51-2.43c.35-1.7.7-3.41,1.06-5.11.17-.81.36-1.61.46-2.43a1.93,1.93,0,0,0-2-2.44A4.18,4.18,0,0,0,62.82,20a24.15,24.15,0,0,0-.58,2.58l-1,4.84c-.16.76-.33,1.51-.47,2.26,0,.2-.12.25-.31.25h-4" transform="translate(0 -0.17)"/><path class="cls-2" d="M118.53,24.33c.22-1.09.45-2.19.65-3.28,0-.2.12-.26.31-.25h1.41c.21,0,.28,0,.23.26-.58,2.79-1.16,5.57-1.73,8.36-.06.3-.17.43-.5.4s-.85,0-1.27,0c-.22,0-.27-.06-.22-.27.22-1.07.43-2.14.66-3.21,0-.2,0-.25-.19-.25-1.2,0-2.41,0-3.62,0-.22,0-.25.11-.29.28-.21,1-.42,2.07-.62,3.11,0,.25-.14.36-.41.35-.45,0-.9,0-1.34,0-.21,0-.27,0-.22-.26.58-2.77,1.16-5.55,1.72-8.33.07-.33.19-.47.55-.43a8,8,0,0,0,1.2,0c.22,0,.3,0,.25.28l-.66,3.25c.07.13.2.08.3.08h3.48C118.33,24.41,118.45,24.45,118.53,24.33Z" transform="translate(0 -0.17)"/><path class="cls-2" d="M92.83,29.72l1-1.62c1.46-2.36,2.91-4.73,4.37-7.1a.37.37,0,0,1,.38-.2h1.64c.22,0,.29.08.33.27l1,5c.22,1.1.44,2.21.67,3.31.06.27,0,.38-.29.36-.5,0-1,0-1.5,0-.23,0-.32-.07-.35-.29s-.13-.66-.19-1a.26.26,0,0,0-.31-.25H96.22a.34.34,0,0,0-.35.19c-.22.37-.45.72-.66,1.1a.41.41,0,0,1-.42.24C94.16,29.71,93.54,29.72,92.83,29.72Zm6.06-6.25-2,3.22h1.92c.7,0,.7,0,.56-.67s-.32-1.63-.5-2.55Z" transform="translate(0 -0.17)"/><path class="cls-2" d="M106.58,29.78a5.17,5.17,0,0,1-3.42-1.23c-.21-.17-.29-.31,0-.52a8.14,8.14,0,0,0,.85-.81c.15-.14.22-.13.38,0a3.38,3.38,0,0,0,3,.88,1.48,1.48,0,0,0,1.14-.78.61.61,0,0,0-.35-.94c-.69-.28-1.43-.38-2.12-.63a5.69,5.69,0,0,1-.77-.32,2,2,0,0,1-.72-2.92A3.25,3.25,0,0,1,107,20.77a4.78,4.78,0,0,1,4.16.95c.16.13.21.22,0,.39s-.57.6-.84.91c-.12.13-.2.19-.36,0a3.42,3.42,0,0,0-1.72-.77,1.83,1.83,0,0,0-1.88.73.63.63,0,0,0,.33,1c.62.27,1.31.35,2,.56a5.74,5.74,0,0,1,.92.38,1.83,1.83,0,0,1,1,2.05,3.09,3.09,0,0,1-2.08,2.42A4.76,4.76,0,0,1,106.58,29.78Z" transform="translate(0 -0.17)"/><path class="cls-2" d="M89.08,29.78a4,4,0,0,1-4.19-4.34A5.6,5.6,0,0,1,89,20.84a4.56,4.56,0,0,1,4.06.7c.74.55.74.56,0,1.1l-.18.14c-.22.16-.41.4-.66.46s-.38-.29-.59-.44a2.49,2.49,0,0,0-2.46-.2,3.52,3.52,0,0,0-2.33,3,2.18,2.18,0,0,0,3.08,2.23,3.43,3.43,0,0,0,1.16-.7c.17-.15.25-.11.37,0,.28.33.56.66.86,1,.17.16.11.24,0,.35A5.92,5.92,0,0,1,89.08,29.78Z" transform="translate(0 -0.17)"/><path class="cls-2" d="M122.88,20.91h2.06l-1.4,7.23H128l-.33,1.68h-6.53Z" transform="translate(0 -0.17)"/><path class="cls-2" d="M130.57,20.91h2.06l-1.73,8.91h-2.06Z" transform="translate(0 -0.17)"/><path class="cls-2" d="M139.92,25.22h1.89l-.71,3.62a6.82,6.82,0,0,1-1.84.84,7.35,7.35,0,0,1-2,.29,4.55,4.55,0,0,1-2.38-.6,3.35,3.35,0,0,1-1.42-1.64,4.16,4.16,0,0,1-.16-2.37A5.45,5.45,0,0,1,134.41,23a5.82,5.82,0,0,1,2.07-1.64,6.13,6.13,0,0,1,2.63-.59,4.84,4.84,0,0,1,2,.4,3.21,3.21,0,0,1,1.39,1.14L141,23.51a2.5,2.5,0,0,0-2.11-1,3.51,3.51,0,0,0-1.59.35,3.41,3.41,0,0,0-1.22,1,3.58,3.58,0,0,0-.66,1.49,2.76,2.76,0,0,0,.08,1.47,2,2,0,0,0,.83,1,2.69,2.69,0,0,0,1.43.36,3.85,3.85,0,0,0,1.67-.38Z" transform="translate(0 -0.17)"/><path class="cls-2" d="M152.73,20.91,151,29.82h-2.06l.71-3.66h-4l-.71,3.66h-2.06l1.73-8.91h2.06l-.69,3.51h4l.68-3.51Z" transform="translate(0 -0.17)"/><path class="cls-2" d="M156.36,22.59h-2.85l.32-1.68h7.77l-.33,1.68h-2.85L157,29.82H155Z" transform="translate(0 -0.17)"/><g id="Mask"><path id="path-2" class="cls-2" d="M9.53.17A5.1,5.1,0,0,0,4.7,5.49V37.81a5.09,5.09,0,0,0,4.83,5.31H42.81a5.09,5.09,0,0,0,4.83-5.31V5.49A5.1,5.1,0,0,0,42.81.17Z" transform="translate(0 -0.17)"/></g><g class="cls-3"><path class="cls-4" d="M54.91,18.78H21.07A4,4,0,0,0,17.14,22l-.27,1.29h0l-.52,2.49-.42,2H7.12a4,4,0,0,0-3.94,3.2L0,46.06a.49.49,0,0,0,0,.12.57.57,0,0,0,.57.57H34.21a4,4,0,0,0,3.94-3.18l.27-1.29L39,39.8l.42-2H45l.52-2.48H39.9l.2-.93H14.54L14,37.11a.49.49,0,0,0,0,.12.56.56,0,0,0,.56.56H36.83l-.42,2-.42,2-.11.51h0l-.16.77a1.56,1.56,0,0,1-1.51,1.22H2.92L5.61,31.42A1.54,1.54,0,0,1,7.12,30.2h8.3l-.35,1.65H40.64l.73-3.45a.43.43,0,0,0,0-.12.57.57,0,0,0-.57-.56H18.48L18,30.2h0l.52-2.48.41-2,.52-2.48h0l.16-.79a1.54,1.54,0,0,1,1.51-1.22H52.41L49.67,34.1a1.54,1.54,0,0,1-1.5,1.22H45.48L45,37.8h3.21a4,4,0,0,0,3.94-3.18l3.23-15.16A.58.58,0,0,0,54.91,18.78Z" transform="translate(0 -0.17)"/><polygon class="cls-5" points="14.71 33.38 40.28 33.38 40.46 32.51 14.89 32.51 14.71 33.38"/></g></g></g></svg>