<svg xmlns="http://www.w3.org/2000/svg" viewBox="0 0 17.31 13.15"><defs><style>.cls-1{fill:#414042;}</style></defs><title>icon-log-out</title><g id="Layer_2" data-name="Layer 2"><g id="Layer_1-2" data-name="Layer 1"><path class="cls-1" d="M0,2.19V11a2.2,2.2,0,0,0,2.19,2.2H9.27a2.21,2.21,0,0,0,2.2-2.2V9.53A.44.44,0,0,0,11,9.1a.43.43,0,0,0-.43.43V11a1.34,1.34,0,0,1-1.33,1.33H2.19A1.34,1.34,0,0,1,.86,11V2.19A1.34,1.34,0,0,1,2.19.86H9.27A1.34,1.34,0,0,1,10.6,2.19V3.61a.44.44,0,0,0,.44.44.44.44,0,0,0,.43-.44V2.19A2.2,2.2,0,0,0,9.28,0H2.19A2.19,2.19,0,0,0,0,2.19Z"/><path class="cls-1" d="M13.61,9.84a.43.43,0,0,0,.3.13.46.46,0,0,0,.31-.13l3-3a.43.43,0,0,0,0-.61l-3-3a.43.43,0,1,0-.61.61l2.22,2.23H7.72a.44.44,0,0,0-.44.43A.44.44,0,0,0,7.72,7h8.11L13.61,9.23a.43.43,0,0,0,0,.61Z"/></g></g></svg>