<svg xmlns="http://www.w3.org/2000/svg" viewBox="0 0 15.38 15.39"><defs><style>.cls-1{fill:#00a9a9;}</style></defs><title>icon-telegram</title><g id="Layer_2" data-name="Layer 2"><g id="Layer_1-2" data-name="Layer 1"><path class="cls-1" d="M15.36.28s0,0,0,0a.36.36,0,0,0-.08-.12A.42.42,0,0,0,15.15,0L15,0h0l-.13,0h0L.25,6A.43.43,0,0,0,0,6.42a.41.41,0,0,0,.27.37L6.38,9,8.6,15.12a.41.41,0,0,0,.37.27H9a.4.4,0,0,0,.37-.25l6-14.58h0a.59.59,0,0,0,0-.13v0A.3.3,0,0,0,15.36.28ZM1.52,6.38,13.27,1.55,6.59,8.23ZM9,13.87,7.16,8.8l6.68-6.68Z"/></g></g></svg>