<svg xmlns="http://www.w3.org/2000/svg" viewBox="0 0 15.93 15.93"><defs><style>.cls-1{fill:#00a9a9;}</style></defs><title>icon-exchange</title><g id="Layer_2" data-name="Layer 2"><g id="Layer_1-2" data-name="Layer 1"><path class="cls-1" d="M14.6,2.39H12.74v.53H14.6a.8.8,0,0,1,.8.8v7.7H.53V3.72a.8.8,0,0,1,.8-.8H5.84V2.39H1.33A1.32,1.32,0,0,0,0,3.72v8.49a1.32,1.32,0,0,0,1.33,1.33H5.61L4.37,15.4H3.19v.53h9.55V15.4H11.56l-1.24-1.86H14.6a1.32,1.32,0,0,0,1.33-1.33V3.72A1.32,1.32,0,0,0,14.6,2.39Zm-3.68,13H5l1.24-1.86H9.68ZM14.6,13H1.33a.8.8,0,0,1-.8-.8V12H15.4v.26a.8.8,0,0,1-.8.8Z"/><path class="cls-1" d="M2.82,6.58l.9-.74V8.23H2.66v.53H13.28V8.23H12.21V1.63L13,.88v1h.53V0H11.68V.53h.93L8.78,4.13,7.2,2.28,2.49,6.17ZM5,8.23H4.25V5.4l1.06-.87v3.7Zm.8,0V4.09L6.9,3.22v5Zm1.59,0V3.37L8.5,4.61V8.23Zm1.6,0V4.63l1.06-1v4.6Zm2.65,0H10.62V3.13l1.06-1Z"/></g></g></svg>