<svg xmlns="http://www.w3.org/2000/svg" viewBox="0 0 16.95 18.83"><defs><style>.cls-1{fill:#00a9a9;}</style></defs><title>icon-auto-lock-active</title><g id="Layer_2" data-name="Layer 2"><g id="Layer_1-2" data-name="Layer 1"><path class="cls-1" d="M10.36,5A1.89,1.89,0,0,0,6.59,5V6.59H5v6h6.9v-6H10.36ZM7.22,5A1.26,1.26,0,0,1,9.73,5V6.59H7.22Zm4.08,2.2v4.7H5.65V7.22Z"/><path class="cls-1" d="M8.16,10.31V11a.32.32,0,1,0,.63,0v-.67a1.26,1.26,0,1,0-.63,0Zm.31-1.84a.63.63,0,1,1-.62.63.63.63,0,0,1,.62-.63Z"/><path class="cls-1" d="M8.47,0a8.47,8.47,0,0,0-.72,16.91L6.37,18.29a.33.33,0,0,0,0,.45.31.31,0,0,0,.44,0l1.88-1.89a.18.18,0,0,0,.07-.1.33.33,0,0,0,0-.24.23.23,0,0,0-.07-.1L6.81,14.53a.31.31,0,0,0-.44.44l1.31,1.31A7.85,7.85,0,1,1,14.05,14a.33.33,0,0,0,0,.45.31.31,0,0,0,.44,0A8.47,8.47,0,0,0,8.47,0Z"/></g></g></svg>