<svg xmlns="http://www.w3.org/2000/svg" viewBox="0 0 14.31 15.36"><defs><style>.cls-1{fill:#505160;}</style></defs><title>icon-restore</title><g id="Layer_2" data-name="Layer 2"><g id="Layer_1-2" data-name="Layer 1"><path class="cls-1" d="M12.12,8.23h2.19c-.06.47-.09.95-.17,1.41A7.14,7.14,0,1,1,8,1.13a8.93,8.93,0,0,1,1.43.32.36.36,0,0,0,.46-.15c.3-.39.61-.77.93-1.15A.41.41,0,0,1,11.05,0c.08,0,.17.15.2.24Q11.93,2.6,12.59,5c.11.37-.13.63-.54.61L7.22,5.25c-.1,0-.26-.06-.28-.13A.5.5,0,0,1,7,4.79c.36-.46.73-.9,1.1-1.36-2-.82-4.9.87-5.69,3.26a5,5,0,1,0,9.68,1.54Z"/></g></g></svg>