<svg xmlns="http://www.w3.org/2000/svg" viewBox="0 0 16.78 16.78"><defs><style>.cls-1{fill:#00a9a9;}</style></defs><title>icon-currency-active</title><g id="Layer_2" data-name="Layer 2"><g id="Layer_1-2" data-name="Layer 1"><path class="cls-1" d="M15.92,6.53H14.35a.6.6,0,0,1-.56-.37.62.62,0,0,1,.13-.66L15,4.39a.85.85,0,0,0,0-1.22L13.62,1.75a.88.88,0,0,0-1.22,0L11.29,2.86a.6.6,0,0,1-1-.43V.86A.87.87,0,0,0,9.39,0h-2a.86.86,0,0,0-.86.86V2.43A.59.59,0,0,1,6.16,3a.58.58,0,0,1-.66-.13L4.39,1.75a.88.88,0,0,0-1.22,0L1.75,3.17a.87.87,0,0,0,0,1.22L2.86,5.5a.6.6,0,0,1-.43,1H.86A.86.86,0,0,0,0,7.39v2a.87.87,0,0,0,.86.87H2.43a.6.6,0,0,1,.43,1L1.75,12.4a.87.87,0,0,0,0,1.22L3.17,15a.88.88,0,0,0,1.22,0L5.5,13.92a.62.62,0,0,1,.66-.13.6.6,0,0,1,.37.56v1.57a.85.85,0,0,0,.86.86h2a.86.86,0,0,0,.87-.86V14.35a.6.6,0,0,1,.37-.56.62.62,0,0,1,.66.13L12.4,15a.88.88,0,0,0,1.22,0L15,13.62a.85.85,0,0,0,0-1.22l-1.11-1.11a.62.62,0,0,1-.13-.66.6.6,0,0,1,.56-.37h1.57a.86.86,0,0,0,.86-.87v-2a.85.85,0,0,0-.86-.86Zm.24,2.86a.25.25,0,0,1-.24.25H14.35a1.22,1.22,0,0,0-.86,2.09l1.1,1.11a.23.23,0,0,1,0,.34l-1.41,1.41a.23.23,0,0,1-.34,0l-1.11-1.1a1.22,1.22,0,0,0-2.09.86v1.57a.25.25,0,0,1-.25.24h-2a.24.24,0,0,1-.24-.24V14.35a1.2,1.2,0,0,0-.76-1.13,1.1,1.1,0,0,0-.47-.1,1.24,1.24,0,0,0-.86.36L4,14.59a.24.24,0,0,1-.35,0L2.19,13.18a.25.25,0,0,1,0-.34L3.3,11.73a1.22,1.22,0,0,0-.87-2.09H.86a.25.25,0,0,1-.24-.25v-2a.24.24,0,0,1,.24-.24H2.43a1.22,1.22,0,0,0,1.14-.76A1.2,1.2,0,0,0,3.3,5.06L2.19,4a.26.26,0,0,1,0-.35L3.6,2.19a.26.26,0,0,1,.35,0L5.06,3.3a1.2,1.2,0,0,0,1.33.27,1.22,1.22,0,0,0,.76-1.14V.86A.24.24,0,0,1,7.39.62h2a.25.25,0,0,1,.25.24V2.43a1.22,1.22,0,0,0,2.09.87l1.11-1.11a.25.25,0,0,1,.34,0l1.41,1.42a.23.23,0,0,1,0,.34l-1.1,1.11a1.22,1.22,0,0,0,.86,2.09h1.57a.24.24,0,0,1,.24.24Z"/><path class="cls-1" d="M8.39,5.59a2.8,2.8,0,1,0,2.8,2.8,2.81,2.81,0,0,0-2.8-2.8Zm0,5a2.18,2.18,0,1,1,2.18-2.18,2.18,2.18,0,0,1-2.18,2.18Z"/></g></g></svg>