<svg xmlns="http://www.w3.org/2000/svg" viewBox="0 0 13.34 15.39"><defs><style>.cls-1{fill:#0089f4;}</style></defs><title>icon-lock2-hover</title><g id="Layer_2" data-name="Layer 2"><g id="Layer_1-2" data-name="Layer 1"><path class="cls-1" d="M11,5.13V3.33A3.34,3.34,0,0,0,7.69,0H5.64A3.33,3.33,0,0,0,2.31,3.33v1.8A2.3,2.3,0,0,0,0,7.44v5.64a2.31,2.31,0,0,0,2.31,2.31H11a2.32,2.32,0,0,0,2.31-2.31V7.44A2.31,2.31,0,0,0,11,5.13ZM2.82,3.33A2.83,2.83,0,0,1,5.64.51H7.69a2.84,2.84,0,0,1,2.83,2.82v1.8H10V3.33A2.3,2.3,0,0,0,7.69,1H5.64a2.32,2.32,0,0,0-2.31,2.3v1.8H2.82Zm6.67,1.8H3.85V3.33A1.79,1.79,0,0,1,5.64,1.54H7.69a1.79,1.79,0,0,1,1.8,1.79Zm-7.18.51H11a1.8,1.8,0,0,1,1.79,1.8v4.87H.51V7.44a1.81,1.81,0,0,1,1.8-1.8Zm10.51,7.44A1.8,1.8,0,0,1,11,14.88H2.31a1.81,1.81,0,0,1-1.8-1.8v-.26H12.82Z"/><path class="cls-1" d="M6.41,10.24v1.3a.26.26,0,0,0,.26.26.26.26,0,0,0,.25-.26v-1.3A1.54,1.54,0,0,0,8.2,8.59,1.53,1.53,0,0,0,6.67,7.18a1.54,1.54,0,0,0-.26,3.06Zm.26-2.55a1,1,0,1,1-1,1,1,1,0,0,1,1-1Z"/></g></g></svg>