<svg xmlns="http://www.w3.org/2000/svg" viewBox="0 0 14.94 17.57"><defs><style>.cls-1{fill:#414042;}</style></defs><title>icon-node</title><g id="Layer_2" data-name="Layer 2"><g id="Layer_1-2" data-name="Layer 1"><path class="cls-1" d="M13.65,10.87V7.94a.27.27,0,0,0-.53,0v2.93a1.49,1.49,0,0,0-.9.51l-3.31-2a1.44,1.44,0,0,0,0-1.15l3.31-2a1.49,1.49,0,0,0,.9.51v.37a.27.27,0,0,0,.53,0V6.7a1.55,1.55,0,0,0-.26-3.08,1.52,1.52,0,0,0-1.17.53l-3.31-2A1.4,1.4,0,0,0,9,1.55a1.56,1.56,0,1,0-3,.58l-3.31,2a1.52,1.52,0,0,0-1.17-.53A1.55,1.55,0,0,0,1.29,6.7v4.17A1.55,1.55,0,0,0,0,12.4a.26.26,0,0,0,.26.26.26.26,0,0,0,.26-.26,1,1,0,1,1,1,1,1,1,0,0,1-.77-.35.26.26,0,0,0-.37,0,.26.26,0,0,0,0,.37A1.55,1.55,0,0,0,1.55,14a1.52,1.52,0,0,0,1.17-.53l3.31,2A1.56,1.56,0,1,0,9,16a1.39,1.39,0,0,0-.12-.57l3.31-2a1.52,1.52,0,0,0,1.17.53,1.55,1.55,0,0,0,.26-3.08Zm-6.18-1a1,1,0,1,1,1-1,1,1,0,0,1-1,1Zm5.92-5.68a1,1,0,1,1-1,1,1,1,0,0,1,1-1Zm-1.45.45a1.58,1.58,0,0,0,0,1.16l-3.3,2a1.57,1.57,0,0,0-.91-.51V3.09a1.57,1.57,0,0,0,.91-.51ZM7.47.52a1,1,0,1,1-1,1,1,1,0,0,1,1-1ZM6.3,2.58a1.57,1.57,0,0,0,.91.51V7.25a1.57,1.57,0,0,0-.91.51L3,5.75A1.58,1.58,0,0,0,3,4.59ZM.52,5.17a1,1,0,1,1,1,1,1,1,0,0,1-1-1Zm1.3,5.7V6.7a1.49,1.49,0,0,0,.9-.51L6,8.21A1.56,1.56,0,0,0,6,9.36l-3.31,2a1.49,1.49,0,0,0-.9-.51ZM3,13a1.58,1.58,0,0,0,0-1.16l3.3-2a1.57,1.57,0,0,0,.91.51v4.16A1.57,1.57,0,0,0,6.3,15Zm4.47,4.07a1,1,0,1,1,1-1,1,1,0,0,1-1,1ZM8.64,15a1.57,1.57,0,0,0-.91-.51V10.32a1.57,1.57,0,0,0,.91-.51l3.3,2a1.58,1.58,0,0,0,0,1.16Zm4.75-1.56a1,1,0,1,1,1-1,1,1,0,0,1-1,1Z"/></g></g></svg>