<svg xmlns="http://www.w3.org/2000/svg" viewBox="0 0 14.35 14.35"><defs><style>.cls-1{fill:#505160;}</style></defs><title>icon-create</title><g id="Layer_2" data-name="Layer 2"><g id="Layer_1-2" data-name="Layer 1"><path class="cls-1" d="M6.56,0H7.79L8,.05A7.05,7.05,0,0,1,14,4.9a13.31,13.31,0,0,1,.38,1.66V7.79a1.74,1.74,0,0,0,0,.22,7.15,7.15,0,0,1-5.41,6.13c-.36.09-.73.14-1.1.21H6.56l-.19,0A7.14,7.14,0,0,1,.27,9.1C.15,8.68.09,8.23,0,7.79V6.56a1.42,1.42,0,0,0,.05-.22A7.18,7.18,0,0,1,5.46.21C5.83.12,6.19.07,6.56,0Zm.62,12.56A5.39,5.39,0,1,0,1.79,7.18,5.4,5.4,0,0,0,7.18,12.56Z"/><path class="cls-1" d="M6.28,8.07H4.59a.9.9,0,1,1,0-1.79H6.28V4.56a.91.91,0,0,1,.9-1,.9.9,0,0,1,.89,1c0,.54,0,1.08,0,1.62a.81.81,0,0,0,0,.09H9.48c.14,0,.28,0,.42,0a.9.9,0,0,1,.86.9.89.89,0,0,1-.87.89H8.07V9.48c0,.14,0,.28,0,.42a.9.9,0,0,1-1.79,0c0-.51,0-1,0-1.54Z"/></g></g></svg>