<svg xmlns="http://www.w3.org/2000/svg" viewBox="0 0 14.56 14.56"><defs><style>.cls-1{fill:#00a9a9;}</style></defs><title>icon-setting</title><g id="Layer_2" data-name="Layer 2"><g id="Layer_1-2" data-name="Layer 1"><path class="cls-1" d="M13.83,5.34H12.26l-.09-.2L13.29,4a.74.74,0,0,0,0-1L11.57,1.27a.74.74,0,0,0-1,0L9.43,2.39l-.21-.08V.73A.73.73,0,0,0,8.5,0H6.07a.73.73,0,0,0-.73.73V2.31l-.2.08L4,1.27a.74.74,0,0,0-1,0L1.27,3a.74.74,0,0,0,0,1L2.39,5.14a1.67,1.67,0,0,0-.08.2H.73A.73.73,0,0,0,0,6.07V8.49a.73.73,0,0,0,.73.73H2.31a1.8,1.8,0,0,0,.08.21L1.27,10.54a.74.74,0,0,0,0,1L3,13.29a.74.74,0,0,0,1,0l1.12-1.12.2.09v1.57a.72.72,0,0,0,.73.73H8.49a.72.72,0,0,0,.73-.73V12.26l.21-.09,1.11,1.12a.74.74,0,0,0,1,0l1.72-1.72a.74.74,0,0,0,0-1L12.17,9.43l.09-.21h1.57a.72.72,0,0,0,.73-.72V6.07a.73.73,0,0,0-.73-.73Zm.25,3.15a.25.25,0,0,1-.25.25H12.09a.23.23,0,0,0-.23.16,3.9,3.9,0,0,1-.2.47.26.26,0,0,0,.05.28L13,10.88a.29.29,0,0,1,.07.18.28.28,0,0,1-.07.17l-1.72,1.71a.23.23,0,0,1-.34,0L9.65,11.71a.26.26,0,0,0-.28-.05l-.47.2a.23.23,0,0,0-.16.23v1.74a.25.25,0,0,1-.25.25H6.07a.24.24,0,0,1-.24-.25V12.09a.24.24,0,0,0-.17-.23,3.9,3.9,0,0,1-.47-.2.27.27,0,0,0-.28.05L3.68,13a.26.26,0,0,1-.35,0L1.62,11.23a.23.23,0,0,1-.07-.17.21.21,0,0,1,.07-.17L2.85,9.65a.23.23,0,0,0,0-.28,3.85,3.85,0,0,1-.19-.47.25.25,0,0,0-.23-.16H.73a.24.24,0,0,1-.24-.25V6.07a.23.23,0,0,1,.24-.24H2.48a.26.26,0,0,0,.23-.17,3.85,3.85,0,0,1,.19-.47.25.25,0,0,0,0-.28L1.62,3.68a.23.23,0,0,1-.07-.17.24.24,0,0,1,.07-.18L3.33,1.62a.26.26,0,0,1,.35,0L4.91,2.85a.23.23,0,0,0,.28,0,3.85,3.85,0,0,1,.47-.19.26.26,0,0,0,.17-.23V.73A.23.23,0,0,1,6.07.49H8.49a.24.24,0,0,1,.25.24V2.48a.25.25,0,0,0,.16.23,3.85,3.85,0,0,1,.47.19.24.24,0,0,0,.28,0l1.23-1.23a.26.26,0,0,1,.35,0l1.71,1.71A.25.25,0,0,1,13,3.5a.25.25,0,0,1-.08.18L11.71,4.91a.26.26,0,0,0-.05.28c.07.15.14.31.2.47a.24.24,0,0,0,.23.17h1.74a.24.24,0,0,1,.25.24Z"/><path class="cls-1" d="M7.28,4.13a3.16,3.16,0,1,0,3.16,3.15A3.15,3.15,0,0,0,7.28,4.13Zm0,5.82A2.67,2.67,0,1,1,10,7.28,2.67,2.67,0,0,1,7.28,10Z"/></g></g></svg>