<svg xmlns="http://www.w3.org/2000/svg" viewBox="0 0 16.28 16.28"><defs><style>.cls-1{fill:#414042;}</style></defs><title>icon-language</title><g id="Layer_2" data-name="Layer 2"><g id="Layer_1-2" data-name="Layer 1"><path class="cls-1" d="M8.14,16.28A8.14,8.14,0,1,0,.66,4.94L.56,5l0,.12A8.13,8.13,0,0,0,5.08,15.68,8,8,0,0,0,8.14,16.28Zm6.39-4-.42-.42v-1a.5.5,0,0,0,0-.12L13,8.62v-1a.29.29,0,0,0-.12-.23l-.82-.54a.26.26,0,0,0-.21,0l-1,.25L9.2,6.32,9,4.71l.64-.64H11l.46.69a.27.27,0,0,0,.18.12l1.63.27a.19.19,0,0,0,.13,0l1.5-.5a7.57,7.57,0,0,1-.35,7.61ZM13.41,2.67,13,3l-1.23-.25-.8-.26a.26.26,0,0,0-.15,0l-1,.25-.44-.14.33-.66h.91a.28.28,0,0,0,.13,0l.94-.47A7.89,7.89,0,0,1,13.41,2.67ZM5.17,1.15l.65.43a.21.21,0,0,0,.11,0l1.31.22-.13.39-.68.23a.33.33,0,0,0-.15.11L5.5,3.87l-1.25.75-1.84.27a.27.27,0,0,0-.24.27V6a.27.27,0,0,0,.08.19l.47.46v.47L1.59,6.34,1.18,5.11A7.61,7.61,0,0,1,5.17,1.15Zm-.77,8.9L3.17,9.8l-.45-.91V8.25l1-1L4.1,8a.28.28,0,0,0,.24.15H6.09l.73,1.23a.28.28,0,0,0,.24.13h.75l-.19.95-1,1a.27.27,0,0,0-.08.19v.68l-1,.73a.27.27,0,0,0-.11.22v1l-.34-.12L4.62,13V10.31A.27.27,0,0,0,4.4,10.05ZM.88,5.92l.22.68a.3.3,0,0,0,.11.14l1.35.9L2.25,8a.27.27,0,0,0-.08.19V9a.28.28,0,0,0,0,.13l.54,1.08a.29.29,0,0,0,.19.15l1.14.22V13a.43.43,0,0,0,0,.11l.55,1.35a.28.28,0,0,0,.16.16l.82.27H5.7A.27.27,0,0,0,6,14.65V13.43l1-.73a.27.27,0,0,0,.11-.22v-.7l1-1a.22.22,0,0,0,.08-.13l.27-1.36A.27.27,0,0,0,8.2,9h-1L6.48,7.73a.28.28,0,0,0-.24-.13H4.51l-.46-.94a.29.29,0,0,0-.44-.07l-.35.35V6.51a.27.27,0,0,0-.08-.19l-.46-.46V5.39l1.66-.24a.17.17,0,0,0,.1,0L5.84,4.3a.2.2,0,0,0,.09-.09L6.7,2.94l.71-.24a.28.28,0,0,0,.18-.17l.27-.82a.27.27,0,0,0-.18-.34h0L6.07,1.1,5.8.92A7.56,7.56,0,0,1,11,1.11l-.5.25h-1a.25.25,0,0,0-.24.15L8.71,2.59A.29.29,0,0,0,8.83,3h0l.81.27a.29.29,0,0,0,.16,0l1-.25.74.24h0L13,3.52a.26.26,0,0,0,.21,0l.61-.41a7.23,7.23,0,0,1,.82,1.09l-1.33.45-1.45-.25-.48-.71a.25.25,0,0,0-.22-.12H9.5a.27.27,0,0,0-.19.08l-.82.81a.25.25,0,0,0-.07.23l.27,1.9a.26.26,0,0,0,.16.21l1.9.82a.33.33,0,0,0,.17,0l1-.24.59.39v.94a.21.21,0,0,0,0,.12l1.06,2.12v1a.27.27,0,0,0,.08.19l.57.57A7.59,7.59,0,0,1,.88,5.92Z"/></g></g></svg>