<svg xmlns="http://www.w3.org/2000/svg" xmlns:xlink="http://www.w3.org/1999/xlink" viewBox="0 0 100.14 82.56"><defs><style>.cls-1{fill:url(#radial-gradient);}.cls-2{fill:url(#radial-gradient-2);}.cls-3{isolation:isolate;}.cls-4{fill:url(#linear-gradient);}.cls-5,.cls-9{fill:#fff;}.cls-6{fill:url(#linear-gradient-2);}.cls-7{fill:#006663;}.cls-8{fill:#00a9a9;}.cls-9{font-size:2.17px;font-family:OpenSans-SemiBold, Open Sans SemiBold;font-weight:600;letter-spacing:0.06em;}.cls-10{fill:url(#linear-gradient-3);}.cls-11{fill:url(#linear-gradient-4);}.cls-12{fill:url(#linear-gradient-5);}.cls-13{fill:url(#Degradado_sin_nombre_52);}.cls-14{fill:url(#linear-gradient-6);}.cls-15{fill:url(#linear-gradient-7);}.cls-16{fill:url(#radial-gradient-3);}.cls-17{fill:url(#radial-gradient-4);}.cls-18{fill:url(#linear-gradient-8);}.cls-19{fill:url(#linear-gradient-9);}.cls-20{fill:url(#radial-gradient-5);}.cls-21{fill:url(#linear-gradient-10);}.cls-22{fill:url(#linear-gradient-11);}.cls-23{fill:url(#radial-gradient-6);}.cls-24{fill:url(#linear-gradient-12);}.cls-25{fill:url(#linear-gradient-13);}.cls-26{fill:url(#linear-gradient-14);}.cls-27{fill:url(#linear-gradient-15);}.cls-28{fill:url(#linear-gradient-16);}.cls-29{font-size:1.63px;font-family:OpenSans, Open Sans;letter-spacing:-0.04em;}.cls-29,.cls-30{fill:#d8d8d8;}.cls-31{fill:url(#radial-gradient-7);}.cls-32{fill:url(#Degradado_sin_nombre_52-2);}.cls-33{fill:url(#radial-gradient-8);}.cls-34{fill:url(#radial-gradient-9);}.cls-35{fill:url(#linear-gradient-17);}.cls-36{fill:url(#linear-gradient-18);}.cls-37{fill:url(#radial-gradient-10);}.cls-38{fill:url(#radial-gradient-11);}.cls-39{fill:url(#linear-gradient-19);}.cls-40{fill:url(#linear-gradient-20);}.cls-41{fill:url(#linear-gradient-21);}.cls-42{fill:url(#linear-gradient-22);}.cls-43{fill:url(#linear-gradient-23);}</style><radialGradient id="radial-gradient" cx="14.87" cy="-42.1" r="132.78" gradientUnits="userSpaceOnUse"><stop offset="0" stop-color="#00a9a9"/><stop offset="0.36" stop-color="#298a8a"/><stop offset="0.75" stop-color="#516c6c"/><stop offset="0.96" stop-color="#606060"/></radialGradient><radialGradient id="radial-gradient-2" cx="65.5" cy="10.13" r="25.22" gradientUnits="userSpaceOnUse"><stop offset="0" stop-color="#00a9a9"/><stop offset="0.17" stop-color="#009b9a"/><stop offset="0.69" stop-color="#007572"/><stop offset="0.96" stop-color="#006663"/></radialGradient><linearGradient id="linear-gradient" x1="75.81" y1="-1.85" x2="82.84" y2="115.18" gradientUnits="userSpaceOnUse"><stop offset="0" stop-color="#006663"/><stop offset="1" stop-color="#00a9a9"/></linearGradient><linearGradient id="linear-gradient-2" x1="59.82" y1="36.2" x2="86.56" y2="39.59" gradientUnits="userSpaceOnUse"><stop offset="0.13" stop-color="#d8d8d8"/><stop offset="1" stop-color="#d8d8d8" stop-opacity="0"/></linearGradient><linearGradient id="linear-gradient-3" x1="41.01" y1="-9.35" x2="83.55" y2="38.41" gradientUnits="userSpaceOnUse"><stop offset="0.13" stop-color="#fff"/><stop offset="1" stop-color="#fff" stop-opacity="0"/></linearGradient><linearGradient id="linear-gradient-4" x1="92.76" y1="-99.81" x2="87.68" y2="-99.81" gradientTransform="translate(0 160.88) scale(1 0.86)" gradientUnits="userSpaceOnUse"><stop offset="0.32" stop-color="#3d2712"/><stop offset="0.47" stop-color="#3c2a15"/><stop offset="0.58" stop-color="#38321f"/><stop offset="0.68" stop-color="#31402f"/><stop offset="0.77" stop-color="#285345"/><stop offset="0.85" stop-color="#1c6d63"/><stop offset="0.93" stop-color="#0e8b86"/><stop offset="1" stop-color="#00a9a9"/></linearGradient><linearGradient id="linear-gradient-5" x1="736.34" y1="-101.53" x2="731.31" y2="-101.53" gradientTransform="translate(-540.36 160.88) scale(0.87 0.86)" xlink:href="#linear-gradient-4"/><linearGradient id="Degradado_sin_nombre_52" x1="96.03" y1="54.48" x2="100.14" y2="54.48" gradientUnits="userSpaceOnUse"><stop offset="0" stop-color="#23bee2"/><stop offset="1" stop-color="#0771a5"/></linearGradient><linearGradient id="linear-gradient-6" x1="82.87" y1="66.77" x2="98.24" y2="66.77" gradientUnits="userSpaceOnUse"><stop offset="0" stop-color="#00a9a9"/><stop offset="0.37" stop-color="#037b8b"/><stop offset="0.79" stop-color="#054d6c"/><stop offset="1" stop-color="#063b60"/></linearGradient><linearGradient id="linear-gradient-7" x1="88.48" y1="55.26" x2="97.91" y2="55.26" gradientUnits="userSpaceOnUse"><stop offset="0" stop-color="#00a9a9"/><stop offset="0.38" stop-color="#36dcf2"/><stop offset="1" stop-color="#34a8e2"/></linearGradient><radialGradient id="radial-gradient-3" cx="96.49" cy="43.99" r="7.46" gradientTransform="translate(0 -0.21)" gradientUnits="userSpaceOnUse"><stop offset="0.1" stop-color="#ffe5c2"/><stop offset="0.24" stop-color="#faddb5"/><stop offset="0.74" stop-color="#ecc38d"/><stop offset="1" stop-color="#e6b97e"/></radialGradient><radialGradient id="radial-gradient-4" cx="85.29" cy="43.08" r="10.17" gradientTransform="matrix(1, 0, 0, 1, 0, 0)" xlink:href="#radial-gradient-3"/><linearGradient id="linear-gradient-8" x1="80.39" y1="52.63" x2="91.49" y2="52.63" gradientTransform="translate(0 -0.21)" xlink:href="#linear-gradient-7"/><linearGradient id="linear-gradient-9" x1="96.11" y1="44.96" x2="91.2" y2="44.96" gradientTransform="translate(0 -0.21)" xlink:href="#linear-gradient-4"/><radialGradient id="radial-gradient-5" cx="91.25" cy="44.96" r="4.08" xlink:href="#radial-gradient-3"/><linearGradient id="linear-gradient-10" x1="90.23" y1="49.28" x2="95.66" y2="49.28" gradientTransform="translate(0 -0.21)" xlink:href="#linear-gradient"/><linearGradient id="linear-gradient-11" x1="5.06" y1="57.5" x2="64.96" y2="13.35" xlink:href="#radial-gradient-2"/><radialGradient id="radial-gradient-6" cx="57.78" cy="19.85" r="36.48" xlink:href="#radial-gradient-2"/><linearGradient id="linear-gradient-12" x1="-8603.12" y1="-10.25" x2="-8594.07" y2="140.57" gradientTransform="matrix(-1, 0, 0, 1, -8574.12, 0)" gradientUnits="userSpaceOnUse"><stop offset="0" stop-color="#00b3ff"/><stop offset="0.96" stop-color="#0026ff"/></linearGradient><linearGradient id="linear-gradient-13" x1="-8595.71" y1="14.89" x2="-8610.55" y2="108.99" gradientTransform="matrix(-1, 0, 0, 1, -8574.12, 0)" xlink:href="#linear-gradient"/><linearGradient id="linear-gradient-14" x1="39.5" y1="18.26" x2="19.28" y2="53" xlink:href="#linear-gradient-2"/><linearGradient id="linear-gradient-15" x1="25.36" y1="-138.5" x2="20.88" y2="-122.21" gradientTransform="matrix(1, 0.04, 0, 1, 0, 183.73)" xlink:href="#linear-gradient"/><linearGradient id="linear-gradient-16" x1="36.63" y1="-35.12" x2="-4.22" y2="50.79" xlink:href="#linear-gradient-3"/><radialGradient id="radial-gradient-7" cx="-0.53" cy="64.56" r="4.52" gradientTransform="matrix(1, 0, 0, 1, 0, 0)" xlink:href="#radial-gradient-3"/><linearGradient id="Degradado_sin_nombre_52-2" x1="0" y1="56.15" x2="3.34" y2="56.15" xlink:href="#Degradado_sin_nombre_52"/><radialGradient id="radial-gradient-8" cx="4.57" cy="68.45" r="5.17" gradientTransform="matrix(1, 0, 0, 1, 0, 0)" xlink:href="#radial-gradient-3"/><radialGradient id="radial-gradient-9" cx="-191.79" cy="-571.6" r="5.63" gradientTransform="translate(112.84 662.88) rotate(8.6)" xlink:href="#radial-gradient-3"/><linearGradient id="linear-gradient-17" x1="9.51" y1="62.9" x2="2.55" y2="62.9" gradientUnits="userSpaceOnUse"><stop offset="0" stop-color="#00a9a9"/><stop offset="0.05" stop-color="#019199"/><stop offset="0.12" stop-color="#037687"/><stop offset="0.2" stop-color="#046079"/><stop offset="0.29" stop-color="#054f6e"/><stop offset="0.4" stop-color="#064466"/><stop offset="0.56" stop-color="#063d61"/><stop offset="1" stop-color="#063b60"/></linearGradient><linearGradient id="linear-gradient-18" x1="1.97" y1="54.91" x2="10.9" y2="54.91" xlink:href="#linear-gradient-7"/><radialGradient id="radial-gradient-10" cx="-8500.68" cy="45.79" r="7.66" gradientTransform="matrix(-1, 0, 0, 1, -8497.54, -0.21)" xlink:href="#radial-gradient-3"/><radialGradient id="radial-gradient-11" cx="18.15" cy="46.63" r="6.75" gradientTransform="matrix(1, 0, 0, 1, 0, 0)" xlink:href="#radial-gradient-3"/><linearGradient id="linear-gradient-19" x1="12.1" y1="49.98" x2="13.99" y2="55.96" xlink:href="#linear-gradient-7"/><linearGradient id="linear-gradient-20" x1="6.93" y1="51.86" x2="6.93" y2="50.34" xlink:href="#linear-gradient-7"/><linearGradient id="linear-gradient-21" x1="0.56" y1="50.8" x2="9.18" y2="50.8" gradientTransform="matrix(1, 0, 0, 1, 0, 0)" xlink:href="#linear-gradient-4"/><linearGradient id="linear-gradient-22" x1="-192.99" y1="-564.82" x2="-188.72" y2="-564.82" gradientTransform="translate(112.84 662.88) rotate(8.6)" xlink:href="#linear-gradient-4"/><linearGradient id="linear-gradient-23" x1="3.22" y1="74.94" x2="6.48" y2="74.94" gradientTransform="matrix(1, 0, 0, 1, 0, 0)" xlink:href="#linear-gradient-4"/></defs><title>create-account</title><g id="Layer_2" data-name="Layer 2"><g id="Layer_1-2" data-name="Layer 1"><path class="cls-1" d="M91.15,9.87,69.79,15.93l-.18.06a1.8,1.8,0,0,0-1.14,1.67v.26l-.09,51.2v.28l-1.07.3a1.66,1.66,0,0,1-.49.07,1.43,1.43,0,0,1-.58-.11l-.24-.1-.94-.4v0a1.8,1.8,0,0,1-1-1.62l.09-52v-.08a1.81,1.81,0,0,1,1.08-1.64.82.82,0,0,1,.24-.1L89.1,7a1,1,0,0,1,.3,0,1.13,1.13,0,0,1,.48.11l1,.66L91,9.59v.23Z"/><path class="cls-2" d="M76.87,19.66,75.58,21.9l-7.11-4-4.31-2.41v-.08a1.81,1.81,0,0,1,1.08-1.64L69.61,16Z"/><g class="cls-3"><path class="cls-4" d="M91.37,8.6,91.27,62a1.08,1.08,0,0,1-.79,1L67.36,69.57a1.81,1.81,0,0,1-2.29-1.75L65.16,16a1.81,1.81,0,0,1,1.31-1.73L90,7.56A1.08,1.08,0,0,1,91.37,8.6Z"/></g><polygon class="cls-5" points="87.54 20.63 69.22 25.82 69.21 30.57 87.53 25.38 87.54 20.63"/><polygon class="cls-5" points="87.54 28.98 69.22 34.18 69.21 38.93 87.53 33.74 87.54 28.98"/><g class="cls-3"><path class="cls-6" d="M90.34,7.38a1,1,0,0,0-.3,0l-23.62,6.7a1.81,1.81,0,0,0-1.32,1.74L65,68a1.75,1.75,0,0,0,1,1.61l.24.1a1.43,1.43,0,0,0,.58.11,1.66,1.66,0,0,0,.49-.07l1.07-.3,22.15-6.29a1.07,1.07,0,0,0,.79-1l.1-52.28V8.47A1.08,1.08,0,0,0,90.34,7.38Zm.71,54.69a.81.81,0,0,1-.59.78L68.38,69.12l-1.14.32a1.52,1.52,0,0,1-.42.06A1.55,1.55,0,0,1,65.73,69,1.52,1.52,0,0,1,65.28,68l.09-52.08a1.55,1.55,0,0,1,1.13-1.48l23.62-6.7a.83.83,0,0,1,.22,0,.82.82,0,0,1,.58.24.79.79,0,0,1,.23.57v1.4Z"/></g><path class="cls-7" d="M79.14,59.85h0a1.2,1.2,0,0,1,1.23,1.25,1.92,1.92,0,0,1-1.55,1.82l-.26,0a1.2,1.2,0,0,1-1.23-1.26,1.93,1.93,0,0,1,1.54-1.82l.27,0m0-.15-.29,0a2.09,2.09,0,0,0-1.68,2,1.36,1.36,0,0,0,1.39,1.41l.29,0a2.08,2.08,0,0,0,1.67-2,1.35,1.35,0,0,0-1.38-1.4Z"/><path class="cls-8" d="M87.09,41.42l-17.62,5a.37.37,0,0,0-.25.34v4a.35.35,0,0,0,.45.33l17.62-5a.34.34,0,0,0,.25-.33v-4A.35.35,0,0,0,87.09,41.42Z"/><text class="cls-9" transform="matrix(1.09, -0.3, 0, 1, 73.37, 48.53)">REGISTER</text><path class="cls-10" d="M85,9,66.47,14.23A1.81,1.81,0,0,0,65.16,16L65.1,48.74Z"/><path class="cls-11" d="M92.4,73.77a12.66,12.66,0,0,1,.36,1.94c0,.55-1.63,1.17-3.35.7A5.41,5.41,0,0,1,88.26,76a1,1,0,0,1,.12-1.86A3.76,3.76,0,0,1,90,73.77Z"/><path class="cls-12" d="M96.77,72.31a13.8,13.8,0,0,1,.32,1.94c0,.54-1.39,1.09-2.9.7-1.9-.5-1.66-2-.89-2.32a3.38,3.38,0,0,1,1.54-.15Z"/><path class="cls-13" d="M97.08,49.41c.63.36,3.8,6.83,2.89,7.87a15.68,15.68,0,0,1-3.39,2.35S95.06,48.26,97.08,49.41Z"/><path class="cls-14" d="M89.23,59.43s0,4.55.08,8.58c0,0,.15,5.73.33,6.08.4.81,2.3.68,2.69,0s0-3.84.24-6.18c.2-1.93.64-3.27,1.07-3.51,0,0,.2,8.51.82,8.92s2.31.06,2.36-.6c.11-1.67-.71-3.11.25-9.71a40.23,40.23,0,0,0-.24-4.14Z"/><g class="cls-3"><path class="cls-15" d="M97.91,51.6l-.67,9.15c0,1.4-8.29,2.09-8.28-.17l-.48-7.75a3.38,3.38,0,0,1,2.46-3.25l3.47-1C96.41,48,97.91,49.53,97.91,51.6Z"/></g><path class="cls-16" d="M94.77,43c-1.3-.62-3.42-.2-3.36.94,0,.91,0,2.84,0,2.84.11,1,.74.94,1,1.06v1.49a4.8,4.8,0,0,0,2.27-.51V47.9A1.65,1.65,0,0,1,95,47a4.37,4.37,0,0,0,.84-2.34A1.81,1.81,0,0,0,94.77,43Z"/><path class="cls-17" d="M80.7,51.58a2,2,0,0,1-1.16-2l0-1.62s-.61-.42-.2-.73l1.28-.41s-.33-.35-.25-.46c.39-.54,1.54.53,1.54,3.15Z"/><path class="cls-18" d="M89,50.82l-1.61.43a3.73,3.73,0,0,1-2.81-.37L82,49.43a1.84,1.84,0,0,0-1.53,2.39l3.71,2.84a3.74,3.74,0,0,0,3.49.56l2.2-.78a2.34,2.34,0,0,0,1.36-3.27C90.87,50.45,90.18,50.06,89,50.82Z"/><path class="cls-19" d="M91.2,44l.41.65,0,1.22.19.07s0-.73.21-.8c.41-.15.55.24.48.78a1.88,1.88,0,0,0,2.77.78l.79-1.3s.56-2.3-1-2.78S91.36,42.57,91.2,44Z"/><path class="cls-20" d="M91.83,45.31c0-.28.67-.52.73.24s-.43.76-.6.73S91.75,46.17,91.83,45.31Z"/><path class="cls-21" d="M90.23,49.85a7.41,7.41,0,0,1,2.07-.06,5.32,5.32,0,0,0,3.36-.69l-.29-.78s-3.26.64-3.46.75Z"/><path class="cls-22" d="M54.25,79.91,54.17,27a1.49,1.49,0,0,0-1.09-1.43L4,0A.93.93,0,0,0,3.4.09h0L.83,1.21l.74,2.85L48,28.27a1.48,1.48,0,0,1,1.08,1.42l.07,47.89,1.32.62L49.4,80.69l1.2,1.78,2.83-1.22h0A1.48,1.48,0,0,0,54.25,79.91Z"/><path class="cls-23" d="M54.15,26.82l-10.76,6L42.33,31l10.75-5.43A1.48,1.48,0,0,1,54.15,26.82Z"/><g class="cls-3"><path class="cls-24" d="M.27,2.16l.08,54A.88.88,0,0,0,1,57L49.63,82.39A1.49,1.49,0,0,0,51.52,81l-.08-52.72a1.48,1.48,0,0,0-1.08-1.42L1.4,1.3A.89.89,0,0,0,.27,2.16Z"/></g><g class="cls-3"><path class="cls-25" d="M.27,2.16l.08,54A.88.88,0,0,0,1,57L49.63,82.39A1.49,1.49,0,0,0,51.52,81l-.08-52.72a1.48,1.48,0,0,0-1.08-1.42L1.4,1.3A.89.89,0,0,0,.27,2.16Z"/></g><g class="cls-3"><path class="cls-26" d="M1.11,1.38l.19,0L50.34,27a1.41,1.41,0,0,1,.93,1.21l.08,52.9A1.31,1.31,0,0,1,51,82a1.28,1.28,0,0,1-.9.37,1,1,0,0,1-.35,0L1,56.83a.67.67,0,0,1-.48-.64L.44,2.05a.67.67,0,0,1,.2-.48.68.68,0,0,1,.47-.19h0m0-.23a.89.89,0,0,0-.89.9L.3,56.19a.9.9,0,0,0,.65.86L49.67,82.5a1.45,1.45,0,0,0,.41.06,1.5,1.5,0,0,0,1.49-1.5l-.08-52.9a1.59,1.59,0,0,0-1.09-1.43L1.36,1.19a.77.77,0,0,0-.25,0Z"/></g><polygon class="cls-8" points="37.75 31.45 10.19 17.09 10.24 53.37 37.8 67.77 37.75 31.45"/><polygon class="cls-5" points="32.91 41.43 32.91 37.12 14.6 27.58 14.6 31.88 32.91 41.43"/><polygon class="cls-5" points="32.83 49.75 32.82 45.45 14.51 35.9 14.51 40.21 32.83 49.75"/><path class="cls-27" d="M31.92,56.27,14.3,47c-.15-.08-.25,0-.25.13v4a.94.94,0,0,0,.44.69L32.1,61.12c.15.08.25,0,.25-.13V57A1,1,0,0,0,31.92,56.27Z"/><text class="cls-9" transform="matrix(1, 0.53, 0, 1, 18.19, 52.28)">REGISTER</text><path class="cls-28" d="M1.4,1.3a.89.89,0,0,0-1.13.86L.33,44.33,30.77,16.61Z"/><polygon class="cls-5" points="33.58 20.75 2.54 4.58 2.54 9.1 33.58 25.28 33.58 20.75"/><text class="cls-29" transform="matrix(1, 0.53, 0, 1, 3.53, 8.04)">www.isometric.com</text><polygon class="cls-5" points="34.12 21.04 34.12 25.56 48.87 33.25 48.87 28.72 34.12 21.04"/><path class="cls-30" d="M35.94,24.72a.9.9,0,0,0,.22-.69c0-.44-.31-.79-.63-.77s-.56.4-.53.84.31.79.63.78l.06,0,.2.55.28-.14Zm-.38-.09c-.22,0-.4-.26-.4-.58s.18-.57.4-.57.41.26.41.57S35.79,24.63,35.56,24.63Z"/><path class="cls-31" d="M.85,59.73A4.66,4.66,0,0,0,.61,61.5c.52,1.81,1.1,1.26,1.1,1.26l.2-1.29s-.09,1.06.15,1,.32-1,.32-1l.07-.52-.47-1Z"/><path class="cls-32" d="M2.8,51.43c-.64.36-1.61,2.76-2.28,3.93-1.19,2.07,0,5.6,0,5.6A1.72,1.72,0,0,0,2,60.05c.3-.82-.19-2.37.19-3.48C3.11,53.77,3.91,50.79,2.8,51.43Z"/><path class="cls-33" d="M5.22,61.62,3.6,61.3A14.79,14.79,0,0,0,3,64.24c1,6.33.18,6.45.27,7.84,0,.35.05,3.31.47,3.44A1.83,1.83,0,0,0,6,74.6c.42-.86-.12-.55-.74-.57a10.54,10.54,0,0,1-.16-1.65A42.13,42.13,0,0,1,5.3,67.7,31.63,31.63,0,0,1,5.22,61.62Z"/><path class="cls-34" d="M9.77,75.13c-.43-.06-1-.21-1.08-.45a27.46,27.46,0,0,1,0-4.35,40.48,40.48,0,0,0,0-8.52l-1.48-.53a31,31,0,0,0-.83,6c.13-.54.22-.87.22-.87.33.25.07,4.13,0,5.75a16.87,16.87,0,0,0,.55,4c.23.58,3,.24,3.4-.38C10.55,75.75,10.6,75.23,9.77,75.13Z"/><path class="cls-35" d="M4.56,57.41l-1,.8a26.23,26.23,0,0,0-1,3.94c.28,1,.8,5.56.8,5.56s2.13,1.9,6.12.28c0,0,.31-7-.73-9.19,0-.06,0-.32,0-.38C7.63,56.4,4.56,57.41,4.56,57.41Z"/><g class="cls-3"><path class="cls-36" d="M2,53.62l1.57,4.59a4.7,4.7,0,0,0,5.2.59l2.16-4.15c0-1.51-.51-2.64-2-3.06l-3.47-1C3.47,50,2,51.54,2,53.62Z"/></g><path class="cls-37" d="M4.9,44.68c1.28-.61,3.48.43,3.66,1.54a2.49,2.49,0,0,1-.25,1.13,3.42,3.42,0,0,0,.14.75c-.1,1-.51,1.42-1.19,1.36v1.83A4.8,4.8,0,0,1,5,50.79V49.5a1.57,1.57,0,0,0-.31-.88,4.38,4.38,0,0,1-.83-2.31A1.79,1.79,0,0,1,4.9,44.68Z"/><path class="cls-38" d="M17.42,53.45a1.59,1.59,0,0,0,.93-1.61l0-1.29s.49-.33.16-.59l-1-.32s.26-.28.2-.37c-.31-.43-1.23.42-1.23,2.52Z"/><path class="cls-39" d="M10.55,52.47c2.81,2.72,5.83-.74,5.83-.74a1.47,1.47,0,0,1,1.22,1.91S14,57.81,10.11,55.73c-1-.53-1.8-1.9-1.28-2.9C9.13,52.26,9.57,51.86,10.55,52.47Z"/><path class="cls-40" d="M9.65,51.86a7.65,7.65,0,0,0-2.07,0,5.32,5.32,0,0,1-3.36-.69l.28-.78S7.76,51,8,51.08Z"/><path class="cls-41" d="M8.62,53.54c-.08-.13-.18-.26-.27-.39A.22.22,0,0,1,8.29,53c0-.12.13-.19.24-.25a.87.87,0,0,0,.28-1.16A2,2,0,0,0,7.94,51c-.44-.21-.87-.59-.69-1.14a2.52,2.52,0,0,1,.39-.59.81.81,0,0,0,.2-.65c-.1-.37-.6-.58-.55-.95a.72.72,0,0,1,.33-.44,4.47,4.47,0,0,0,1-.84c.8-1.06-.09-1.58-1.05-1.81a.81.81,0,0,1-.22-.07,3,3,0,0,0-2.61-.18,2.07,2.07,0,0,0-1.37,1.61c-.06.59.13,1.24-.5,1.6-.28.15-.67.19-.83.46-.33.54.39.93.73,1.22a.54.54,0,0,1,.23.46.59.59,0,0,1-.27.37c-.48.34-1,.43-1.27,1A6.73,6.73,0,0,0,1,52,3.85,3.85,0,0,0,.58,54c.23,1.38,1.6,1.17,2.58,1.55a1.11,1.11,0,0,1,.79.94c0,.32-.19.78.2,1a1,1,0,0,0,.52,0,14.88,14.88,0,0,0,1.75-.2,4.49,4.49,0,0,0,1.88-.68,2.11,2.11,0,0,0,.85-1.22A2.4,2.4,0,0,0,8.62,53.54Z"/><path class="cls-42" d="M9.2,75.4c.05-.15,0-.28-.15-.46a6.23,6.23,0,0,1,1.62.3c.13.18.69.76-1.4,1.24s-2.61.25-2.79-.38c-.1-.32.37-1.07.37-1.07a1.29,1.29,0,0,1,.74.45,1.4,1.4,0,0,0,.86.37A.69.69,0,0,0,9.2,75.4Z"/><path class="cls-43" d="M3.3,74.41c.09-.22.34-.31,1,.26.39.31,1.05-.07,1.26-.24a.21.21,0,0,0-.1-.36l-.28,0s.74-.18,1,0,.66.62-.77,1.49-2.23.06-2.23.06A4.7,4.7,0,0,1,3.3,74.41Z"/></g></g></svg>