<svg xmlns="http://www.w3.org/2000/svg" viewBox="0 0 17.93 17.97"><defs><style>.cls-1{fill:#fff;}</style></defs><title>icon-receive</title><g id="Layer_2" data-name="Layer 2"><g id="Layer_1-2" data-name="Layer 1"><path class="cls-1" d="M3.35,0H.54A.54.54,0,0,0,0,.54V3.35a.54.54,0,0,0,.54.54.55.55,0,0,0,.55-.54V1.09H3.35A.55.55,0,0,0,3.89.54.54.54,0,0,0,3.35,0Z"/><path class="cls-1" d="M17.39,0h-2.8A.55.55,0,0,0,14,.54a.55.55,0,0,0,.55.55h2.26V3.35a.54.54,0,0,0,1.08,0V.54A.54.54,0,0,0,17.39,0Z"/><path class="cls-1" d="M17.39,14.08a.54.54,0,0,0-.54.54v2.26H14.59a.55.55,0,0,0-.55.54.55.55,0,0,0,.55.55h2.8a.55.55,0,0,0,.54-.55v-2.8a.54.54,0,0,0-.54-.54Z"/><path class="cls-1" d="M3.35,16.88H1.09V14.62a.55.55,0,0,0-.55-.54.54.54,0,0,0-.54.54v2.8A.55.55,0,0,0,.54,18H3.35a.55.55,0,0,0,.54-.55.54.54,0,0,0-.54-.54Z"/></g></g></svg>