<?xml version="1.0" encoding="utf-8"?>
<!-- Generator: Adobe Illustrator 23.0.1, SVG Export Plug-In . SVG Version: 6.00 Build 0)  -->
<svg version="1.1" id="Layer_1" xmlns="http://www.w3.org/2000/svg" xmlns:xlink="http://www.w3.org/1999/xlink" x="0px" y="0px"
	 viewBox="0 0 12 12" style="enable-background:new 0 0 12 12;" xml:space="preserve">
<style type="text/css">
	.st0{fill:#FFFFFF;}
</style>
<path class="st0" d="M11.1,0H0.9C0.4,0,0,0.4,0,0.9v2.2v1.1v3.6v1.1v2.2C0,11.6,0.4,12,0.9,12h10.3c0.5,0,0.9-0.4,0.9-0.9V0.9
	C12,0.4,11.6,0,11.1,0z M0.6,4.5h0.8v3H0.6V4.5z M0.6,8.1h1.4v0.6H0.6V8.1z M1.9,9.2h0.3c0.2,0,0.3-0.1,0.3-0.3V7.8
	c0-0.2-0.1-0.3-0.3-0.3H1.9v-3h0.3c0.2,0,0.3-0.1,0.3-0.3V3.1c0-0.2-0.1-0.3-0.3-0.3H1.9V1.9h8.1v8.1H1.9V9.2z M1.9,3.4v0.6H0.6V3.4
	H1.9z M11.4,11.1c0,0.2-0.1,0.3-0.3,0.3H0.9c-0.2,0-0.3-0.1-0.3-0.3V9.2h0.8v1c0,0.2,0.2,0.4,0.4,0.4h8.4c0.2,0,0.4-0.2,0.4-0.4V1.8
	c0-0.2-0.2-0.4-0.4-0.4H1.8c-0.2,0-0.4,0.2-0.4,0.4v1H0.6V0.9c0-0.2,0.1-0.3,0.3-0.3h10.3c0.2,0,0.3,0.1,0.3,0.3L11.4,11.1
	L11.4,11.1z"/>
<path class="st0" d="M4,4C2.9,5.1,2.9,6.9,4,8c0.5,0.5,1.3,0.8,2,0.8c0.7,0,1.4-0.3,2-0.8c1.1-1.1,1.1-2.9,0-4C6.9,2.9,5.1,2.9,4,4z
	 M7.8,7.4L7.3,6.9c0.1-0.2,0.2-0.4,0.3-0.7h0.7C8.2,6.7,8.1,7.1,7.8,7.4z M3.7,6.3h0.7c0,0.2,0.1,0.5,0.3,0.7L4.2,7.4
	C3.9,7.1,3.8,6.7,3.7,6.3z M4.2,4.6l0.5,0.5C4.6,5.3,4.5,5.5,4.4,5.7H3.7C3.8,5.3,3.9,4.9,4.2,4.6z M6,7.1c-0.3,0-0.5-0.1-0.7-0.3
	C5.1,6.5,4.9,6.3,4.9,6c0-0.3,0.1-0.5,0.3-0.7C5.5,5.1,5.7,4.9,6,4.9s0.5,0.1,0.7,0.3C6.9,5.5,7.1,5.7,7.1,6c0,0.3-0.1,0.5-0.3,0.7
	C6.5,6.9,6.3,7.1,6,7.1z M6.9,4.7C6.7,4.6,6.5,4.5,6.3,4.4V3.7c0.4,0,0.8,0.2,1.2,0.5L6.9,4.7z M5.7,4.4c-0.2,0-0.5,0.1-0.7,0.3
	L4.6,4.2c0.3-0.3,0.8-0.4,1.2-0.5L5.7,4.4L5.7,4.4z M5.1,7.3c0.2,0.1,0.4,0.2,0.7,0.3v0.7c-0.4,0-0.8-0.2-1.2-0.5L5.1,7.3z M6.3,7.6
	c0.2,0,0.5-0.1,0.7-0.3l0.5,0.5C7.1,8.1,6.7,8.2,6.3,8.3V7.6z M7.6,5.7c0-0.2-0.1-0.5-0.3-0.7l0.5-0.5c0.3,0.3,0.4,0.8,0.5,1.2
	L7.6,5.7L7.6,5.7L7.6,5.7z"/>
</svg>
