<svg xmlns="http://www.w3.org/2000/svg" viewBox="0 0 14.94 17.57"><defs><style>.cls-1{fill:#00a9a9;}</style></defs><title>icon-add-node-active</title><g id="Layer_2" data-name="Layer 2"><g id="Layer_1-2" data-name="Layer 1"><path class="cls-1" d="M14.38,11.2a1.07,1.07,0,0,0-.22-.15l-.24-.12-.27-.07V7.94a.27.27,0,0,0-.53,0v2.92l-.26.07-.24.11-.21.15a1.07,1.07,0,0,0-.19.18,1.34,1.34,0,0,0-.29.45h0a1.56,1.56,0,0,0,0,1.15h0L8.64,15l0,0-.09-.09a.19.19,0,0,0-.07-.06s0,0,0,0a.8.8,0,0,0-.21-.15,1.43,1.43,0,0,0-.5-.18,1.14,1.14,0,0,0-.52,0,1.43,1.43,0,0,0-.5.18.8.8,0,0,0-.21.15s0,0,0,0a.19.19,0,0,0-.07.06L6.32,15l0,0L3,13H3a1.56,1.56,0,0,0,0-1.15H3a1.34,1.34,0,0,0-.29-.45,1.07,1.07,0,0,0-.19-.18L2.32,11l-.24-.11-.26-.07V6.7l.26-.07.24-.11a1,1,0,0,0,.21-.15,1.07,1.07,0,0,0,.19-.18A1.4,1.4,0,0,0,3,5.75H3A1.56,1.56,0,0,0,3,4.59H3l3.29-2a.4.4,0,0,0,.13.13.53.53,0,0,0,.12.1h0l.15.1a1.43,1.43,0,0,0,.5.18,1.14,1.14,0,0,0,.52,0,1.43,1.43,0,0,0,.5-.18l.15-.1h0a.53.53,0,0,0,.12-.1.4.4,0,0,0,.13-.13l3.29,2h0a1.56,1.56,0,0,0,0,1.15h0a1.4,1.4,0,0,0,.29.44,1.07,1.07,0,0,0,.19.18,1,1,0,0,0,.21.15l.24.11.26.07v.37a.27.27,0,0,0,.53,0V6.7l.27-.07.24-.12a1.07,1.07,0,0,0,.22-.15l.19-.19a1.54,1.54,0,0,0,.37-1,1.56,1.56,0,0,0-1.55-1.56H13.2a2,2,0,0,0-.54.17.74.74,0,0,0-.21.13,2.39,2.39,0,0,0-.23.22l-3.3-2h0A1.43,1.43,0,0,0,9,1.55,1.77,1.77,0,0,0,9,1.09,1.31,1.31,0,0,0,8.87.88,1.52,1.52,0,0,0,8.14.15L7.93.07A1.55,1.55,0,0,0,7,.07L6.8.15a1.52,1.52,0,0,0-.73.73A1.31,1.31,0,0,0,6,1.09a1.77,1.77,0,0,0-.07.46A1.62,1.62,0,0,0,6,2.13H6l-3.3,2a2.39,2.39,0,0,0-.23-.22,1.07,1.07,0,0,0-.21-.13l-.23-.1a1.64,1.64,0,0,0-.5-.08A1.56,1.56,0,0,0,0,5.17a1.54,1.54,0,0,0,.37,1l.19.19a1.07,1.07,0,0,0,.22.15L1,6.63l.27.07v4.16L1,10.93l-.24.12a1.07,1.07,0,0,0-.22.15l-.19.19a1.57,1.57,0,0,0-.37,1,.26.26,0,0,0,.26.26.26.26,0,0,0,.26-.26,1,1,0,0,1,1-1,1,1,0,1,1,0,2.07,1,1,0,0,1-.77-.35.27.27,0,0,0-.37,0,.26.26,0,0,0,0,.37,2.39,2.39,0,0,0,.23.22s0,0,0,0a.18.18,0,0,1,.07,0,.82.82,0,0,0,.2.12l.11,0a.66.66,0,0,0,.2.06l.33,0a1.64,1.64,0,0,0,.5-.08l.23-.1a1.07,1.07,0,0,0,.21-.13,2.39,2.39,0,0,0,.23-.22l3.3,2H6a1.52,1.52,0,0,0-.11.57,1.77,1.77,0,0,0,.07.46,1.31,1.31,0,0,0,.08.21,1.46,1.46,0,0,0,.71.72.34.34,0,0,0,.12.06,1.53,1.53,0,0,0,1.14,0,.34.34,0,0,0,.12-.06,1.46,1.46,0,0,0,.71-.72A1.31,1.31,0,0,0,9,16.47,1.77,1.77,0,0,0,9,16a1.35,1.35,0,0,0-.11-.57h0l3.3-2a2.39,2.39,0,0,0,.23.22,1.07,1.07,0,0,0,.21.13l.23.1a1.64,1.64,0,0,0,.5.08,1.55,1.55,0,0,0,1.18-2.56Zm-1-7.07a1,1,0,1,1-1,1A1,1,0,0,1,13.39,4.13ZM7.47.52a1,1,0,1,1-1,1A1,1,0,0,1,7.47.52ZM.52,5.17a1,1,0,0,1,1-1,1,1,0,1,1,0,2.07A1,1,0,0,1,.52,5.17ZM7.47,17a1,1,0,1,1,1-1A1,1,0,0,1,7.47,17Zm5.92-3.61a1,1,0,1,1,1-1A1,1,0,0,1,13.39,13.43Z"/><path class="cls-1" d="M9.54,8.88H5.19a.35.35,0,1,1,0-.69H9.54a.35.35,0,0,1,0,.69Z"/><path class="cls-1" d="M7.36,11.06A.35.35,0,0,1,7,10.71V6.36A.35.35,0,0,1,7.36,6a.35.35,0,0,1,.35.35v4.35A.35.35,0,0,1,7.36,11.06Z"/></g></g></svg>