<svg xmlns="http://www.w3.org/2000/svg" viewBox="0 0 22.7 26.17"><defs><style>.cls-1{fill:#fff;}</style></defs><title>icon-accounts</title><g id="Layer_2" data-name="Layer 2"><g id="Layer_1-2" data-name="Layer 1"><path class="cls-1" d="M21.85,4.51l-8-4.33a1.69,1.69,0,0,0-2.21.66L7,9.53H1.29A1.28,1.28,0,0,0,0,10.82V13.1H0V24.88a1.28,1.28,0,0,0,1.29,1.29H19.45a1.28,1.28,0,0,0,1.3-1.29V21.59h.53a.5.5,0,0,0,.51-.5V17.33a.5.5,0,0,0-.51-.51h-.53V13.13a1.31,1.31,0,0,0-1-1.26l2.78-5.15A1.66,1.66,0,0,0,21.85,4.51ZM16.17,2.58l-5,9.25H9.76L15.1,2Zm-3.6-1.26a.61.61,0,0,1,.82-.25l.79.44L8.62,11.83H6.88ZM1.26,10.54H6.41L5.72,11.8H1.26a.89.89,0,0,0-.28,0v-1A.31.31,0,0,1,1.26,10.54Zm19.49,7.29v2.75h-3a.5.5,0,0,1-.51-.5V18.34a.51.51,0,0,1,.51-.51h3Zm-3-1a1.53,1.53,0,0,0-1.52,1.52v1.74a1.52,1.52,0,0,0,1.52,1.51h2v3.29a.29.29,0,0,1-.29.28H1.26A.29.29,0,0,1,1,24.88V13.13H1a.29.29,0,0,1,.28-.29H19.39a.28.28,0,0,1,.28.29v3.69ZM21.6,6.21l-3,5.62H12.32l4.73-8.74,4.3,2.33A.56.56,0,0,1,21.6,6.21Z"/></g></g></svg>