<svg xmlns="http://www.w3.org/2000/svg" viewBox="0 0 14.56 14.56"><defs><style>.cls-1{fill:#0089f4;}</style></defs><title>icon-dapp-hover</title><g id="Layer_2" data-name="Layer 2"><g id="Layer_1-2" data-name="Layer 1"><path class="cls-1" d="M5.89,0h-5A.87.87,0,0,0,0,.87v5a.87.87,0,0,0,.87.87h5a.87.87,0,0,0,.87-.87v-5A.87.87,0,0,0,5.89,0Zm.35,5.89a.35.35,0,0,1-.35.35h-5a.35.35,0,0,1-.35-.35v-5A.35.35,0,0,1,.87.52h5a.35.35,0,0,1,.35.35Z"/><path class="cls-1" d="M13.69,0h-5A.87.87,0,0,0,7.8.87v5a.87.87,0,0,0,.87.87h5a.87.87,0,0,0,.87-.87v-5A.87.87,0,0,0,13.69,0ZM14,5.89a.35.35,0,0,1-.35.35h-5a.35.35,0,0,1-.35-.35v-5A.35.35,0,0,1,8.67.52h5A.35.35,0,0,1,14,.87Z"/><path class="cls-1" d="M5.89,7.8h-5A.87.87,0,0,0,0,8.67v5a.87.87,0,0,0,.87.87h5a.87.87,0,0,0,.87-.87v-5a.87.87,0,0,0-.87-.87Zm.35,5.89a.35.35,0,0,1-.35.35h-5a.35.35,0,0,1-.35-.35v-5a.35.35,0,0,1,.35-.35h5a.35.35,0,0,1,.35.35Z"/><path class="cls-1" d="M14.3,10.92H11.44V8.06a.26.26,0,0,0-.26-.26.26.26,0,0,0-.26.26v2.86H8.06a.26.26,0,0,0-.26.26.26.26,0,0,0,.26.26h2.86V14.3a.26.26,0,0,0,.26.26.25.25,0,0,0,.26-.26V11.44H14.3a.25.25,0,0,0,.26-.26.26.26,0,0,0-.26-.26Z"/></g></g></svg>