<svg xmlns="http://www.w3.org/2000/svg" viewBox="0 0 15.13 14.3"><defs><style>.cls-1{fill:#fff;}</style></defs><title>icon-copy</title><g id="Layer_2" data-name="Layer 2"><g id="Layer_1-2" data-name="Layer 1"><path class="cls-1" d="M1.23,12.27,2.3,11.16a1.46,1.46,0,0,1,1.15-.48H14.53a.6.6,0,1,1,0,1.19H3.59a.73.73,0,0,0-.56.23L1.13,14c-.21.21-.42.37-.74.24a.66.66,0,0,1-.39-.7C0,10.38,0,7.2,0,4A3.15,3.15,0,0,1,3.33.74l7.13,0h.46a.55.55,0,0,1,.53.57.56.56,0,0,1-.53.6,4.17,4.17,0,0,1-.5,0H3.32a2.12,2.12,0,0,0-1.45.48A1.71,1.71,0,0,0,1.2,3.73c0,2.78,0,5.55,0,8.33A1.08,1.08,0,0,0,1.23,12.27Z"/><path class="cls-1" d="M13.26,9.86c0-.09-.09-.18-.13-.27A2.67,2.67,0,0,1,13,9.33a8,8,0,0,1-.6-3.48c.05-1.73,0-3.46,0-5.18,0-.58.08-.67.65-.67h.52c.37,0,.48.11.48.48,0,1.4,0,2.79,0,4.19,0,.76,0,1.52,0,2.28a3.53,3.53,0,0,1-.21,1.33c-.16.43-.29.87-.44,1.31,0,.09-.08.18-.12.27Zm.55-2.26h-1a8.12,8.12,0,0,0,.27.79.29.29,0,0,0,.23.17.3.3,0,0,0,.23-.16C13.64,8.15,13.71,7.88,13.81,7.6Z"/><path class="cls-1" d="M11.06,8.48l0,0c.12.67.09.7-.57.7h-8V8.48Z"/><path class="cls-1" d="M2.53,4.07V3.35h8.53l0,.07c.06.65.06.65-.58.65h-8Z"/><path class="cls-1" d="M11.11,5.93v.7H6.91v-.7Z"/><path class="cls-1" d="M2.53,6.63V5.92H5.87v.71Z"/></g></g></svg>