<svg xmlns="http://www.w3.org/2000/svg" xmlns:xlink="http://www.w3.org/1999/xlink" viewBox="0 0 98.79 28.09"><defs><style>.cls-1{fill:none;}.cls-2{fill:#878787;}.cls-3{fill:url(#linear-gradient);}.cls-4{clip-path:url(#clip-path);}.cls-5{fill:#fff;}</style><linearGradient id="linear-gradient" x1="-1023.24" y1="1569.63" x2="-1022.89" y2="1570.02" gradientTransform="translate(66515.79 -102024.86) scale(65)" gradientUnits="userSpaceOnUse"><stop offset="0" stop-color="#127daf"/><stop offset="0.06" stop-color="#107da5"/><stop offset="0.35" stop-color="#097e7e"/><stop offset="0.61" stop-color="#047f62"/><stop offset="0.83" stop-color="#017f51"/><stop offset="1" stop-color="#007f4b"/></linearGradient><clipPath id="clip-path" transform="translate(0 -0.11)"><path class="cls-1" d="M6,0H28.73V23a3.15,3.15,0,0,1-3.15,3.15H6A3.16,3.16,0,0,1,2.83,23V3.15A3.16,3.16,0,0,1,6,0Z"/></clipPath></defs><title>logo2</title><g id="Layer_2" data-name="Layer 2"><g id="Layer_1-2" data-name="Layer 1"><path class="cls-2" d="M37.7,14.37c.23-1.12.47-2.24.71-3.35.08-.39.16-.78.23-1.16,0-.13.07-.18.2-.18h2.34c.16,0,.19.06.16.2l-.21,1c1.47-1.73,4.49-1.57,5.41.5.14-.15.26-.31.39-.46A3.86,3.86,0,0,1,49.4,9.73a3.52,3.52,0,0,1,1.84.24,2.71,2.71,0,0,1,1.65,2.33,4.92,4.92,0,0,1-.18,1.62q-.52,2.56-1.07,5.14c-.09.4-.09.4-.5.4h-2c-.12,0-.19,0-.16-.17.18-.83.35-1.67.52-2.5.21-1.07.44-2.14.65-3.21a1.79,1.79,0,0,0-.07-1,1,1,0,0,0-.8-.62,2.48,2.48,0,0,0-2.64,1.63c-.16.66-.27,1.33-.41,2-.19,1-.4,1.9-.6,2.85-.06.28-.13.55-.17.83,0,.12-.06.17-.19.17H43c-.15,0-.16-.06-.14-.18.11-.48.2-.95.3-1.43.21-1,.41-2,.63-3,.1-.48.21-.95.27-1.44A1.13,1.13,0,0,0,42.92,12a2.46,2.46,0,0,0-2.33,1.61,15.22,15.22,0,0,0-.34,1.52L39.65,18c-.09.44-.19.88-.28,1.33,0,.11-.07.14-.18.14H36.82" transform="translate(0 -0.11)"/><path class="cls-2" d="M73.42,16.17c.13-.65.26-1.29.38-1.94,0-.11.07-.15.19-.14h.83c.12,0,.16,0,.13.15l-1,4.92c0,.18-.1.26-.29.24h-.75c-.13,0-.16,0-.13-.16.13-.63.25-1.26.39-1.89,0-.11,0-.14-.11-.14H70.9c-.13,0-.15.06-.17.16-.12.61-.25,1.22-.37,1.83,0,.15-.07.21-.24.2h-.79c-.12,0-.16,0-.13-.15.35-1.64.69-3.27,1-4.91,0-.19.11-.28.32-.25h.71c.13,0,.18,0,.15.16-.14.64-.26,1.28-.39,1.91,0,.08.11.05.17.05h2.06C73.3,16.21,73.37,16.24,73.42,16.17Z" transform="translate(0 -0.11)"/><path class="cls-2" d="M58.28,19.34l.58-.95,2.58-4.18a.21.21,0,0,1,.22-.12h1c.13,0,.17,0,.19.16.2,1,.39,2,.59,2.94l.39,1.95c0,.16,0,.22-.17.21a8.81,8.81,0,0,0-.89,0c-.13,0-.18,0-.2-.17s-.08-.39-.11-.58-.07-.16-.18-.16h-2a.22.22,0,0,0-.21.12c-.12.22-.26.43-.38.64a.25.25,0,0,1-.25.15Zm3.57-3.68-1.17,1.9h1.14c.41,0,.41,0,.33-.4s-.19-1-.3-1.5Z" transform="translate(0 -0.11)"/><path class="cls-2" d="M66.38,19.38a3.09,3.09,0,0,1-2-.72c-.12-.11-.17-.19,0-.32a5.47,5.47,0,0,0,.5-.47c.08-.08.13-.08.22,0a2,2,0,0,0,1.77.52.92.92,0,0,0,.67-.46.36.36,0,0,0-.21-.56c-.4-.16-.84-.22-1.25-.36l-.45-.19a1.22,1.22,0,0,1-.43-1.73,1.93,1.93,0,0,1,1.43-1,2.8,2.8,0,0,1,2.44.56c.1.07.13.13,0,.23s-.33.35-.49.53-.12.12-.22,0a2.08,2.08,0,0,0-1-.46,1.1,1.1,0,0,0-1.11.43c-.16.28-.1.48.2.6a11.64,11.64,0,0,0,1.15.34,2.87,2.87,0,0,1,.55.22,1.08,1.08,0,0,1,.57,1.21,1.8,1.8,0,0,1-1.22,1.42A2.75,2.75,0,0,1,66.38,19.38Z" transform="translate(0 -0.11)"/><path class="cls-2" d="M56.06,19.38a2.34,2.34,0,0,1-2.46-2.56A3.29,3.29,0,0,1,56,14.11a2.7,2.7,0,0,1,2.4.41c.43.33.43.34,0,.65l-.11.09c-.13.09-.24.23-.39.26s-.22-.17-.34-.25a1.45,1.45,0,0,0-1.45-.12,2.07,2.07,0,0,0-1.38,1.78,1.28,1.28,0,0,0,1.82,1.31,2,2,0,0,0,.68-.41c.1-.09.15-.07.22,0s.33.39.51.58.06.14,0,.21A3.52,3.52,0,0,1,56.06,19.38Z" transform="translate(0 -0.11)"/><path class="cls-2" d="M76,14.15H77.2l-.83,4.26H79l-.19,1H75Z" transform="translate(0 -0.11)"/><path class="cls-2" d="M80.51,14.15h1.22l-1,5.25H79.49Z" transform="translate(0 -0.11)"/><path class="cls-2" d="M86,16.69h1.11l-.41,2.13a4,4,0,0,1-1.09.5,4.17,4.17,0,0,1-1.16.17,2.76,2.76,0,0,1-1.41-.35,2,2,0,0,1-.83-1,2.42,2.42,0,0,1-.1-1.4,3.31,3.31,0,0,1,.64-1.4,3.45,3.45,0,0,1,1.22-1,3.52,3.52,0,0,1,1.56-.35,3,3,0,0,1,1.2.23,1.87,1.87,0,0,1,.82.68l-.92.72a1.46,1.46,0,0,0-1.24-.6,2.15,2.15,0,0,0-.94.21,2,2,0,0,0-.72.6,2,2,0,0,0-.38.87,1.57,1.57,0,0,0,0,.87,1.21,1.21,0,0,0,.49.6,1.59,1.59,0,0,0,.84.21,2.14,2.14,0,0,0,1-.22Z" transform="translate(0 -0.11)"/><path class="cls-2" d="M93.57,14.15l-1,5.25H91.33l.42-2.15H89.37L89,19.4H87.73l1-5.25H90l-.41,2.07H92l.4-2.07Z" transform="translate(0 -0.11)"/><path class="cls-2" d="M95.71,15.14H94l.19-1h4.57l-.19,1H96.92L96.1,19.4H94.88Z" transform="translate(0 -0.11)"/><g id="Mask"><path id="path-2" class="cls-3" d="M5.75.11a3.07,3.07,0,0,0-2.92,3.2V22.8A3.07,3.07,0,0,0,5.75,26H25.82a3.06,3.06,0,0,0,2.91-3.2V3.31A3.06,3.06,0,0,0,25.82.11Z" transform="translate(0 -0.11)"/></g><g class="cls-4"><polygon class="cls-5" points="7.23 16.61 6.92 18.11 5.39 18.11 5.7 16.61 7.23 16.61"/><polygon class="cls-5" points="11.39 15.41 9.86 15.41 9.61 16.61 11.14 16.61 11.39 15.41"/><path class="cls-5" d="M33,11.32H12.71a2.41,2.41,0,0,0-2.37,1.93l-.17.78H11.7l.1-.48a.94.94,0,0,1,.91-.74h18.9L30,20.57a.94.94,0,0,1-.91.73H27.43l-.32,1.5h1.94a2.41,2.41,0,0,0,2.37-1.92l1.95-9.14a.34.34,0,0,0-.26-.41Z" transform="translate(0 -0.11)"/><polygon class="cls-5" points="7.23 16.61 6.92 18.11 9.29 18.11 9.61 16.61 7.23 16.61"/><path class="cls-5" d="M24.51,19.21H9.09l.21-1h1.53l.31-1.49H24.62a.34.34,0,0,1,.34.34.17.17,0,0,1,0,.07Z" transform="translate(0 -0.11)"/><polygon class="cls-5" points="24.29 20.13 8.87 20.13 8.98 19.6 24.4 19.6 24.29 20.13"/><path class="cls-5" d="M25.9,21.3l-.31,1.49H23.75L23.49,24l-.32,1.5-.17.77a2.41,2.41,0,0,1-2.37,1.92H.34A.34.34,0,0,1,0,27.85a.17.17,0,0,1,0-.07l1.91-9.13a2.41,2.41,0,0,1,2.37-1.93H5.7l-.31,1.49H4.29a1,1,0,0,0-.91.74L1.76,26.7H20.63a.93.93,0,0,0,.91-.74l.1-.46L22,24l.25-1.21H8.76a.34.34,0,0,1-.34-.34v-.07l.35-1.65H24.19l-.12.57Z" transform="translate(0 -0.11)"/><polygon class="cls-5" points="11.14 16.61 10.82 18.11 9.29 18.11 9.61 16.61 11.14 16.61"/><polygon class="cls-5" points="27.43 21.19 27.11 22.69 25.58 22.69 25.9 21.19 27.43 21.19"/><polygon class="cls-5" points="11.7 13.92 11.39 15.41 9.86 15.41 10.17 13.92 11.7 13.92"/><polyline class="cls-5" points="23.49 23.9 21.96 23.9 21.64 25.39 23.17 25.39"/></g></g></g></svg>