<svg xmlns="http://www.w3.org/2000/svg" viewBox="0 0 117.04 18.51"><defs><style>.cls-1{fill:#878787;}</style></defs><title>logo-text</title><g id="Layer_2" data-name="Layer 2"><g id="Layer_1-2" data-name="Layer 1"><path class="cls-1" d="M1.66,8.86C2.11,6.74,2.55,4.63,3,2.51c.15-.73.3-1.46.44-2.19,0-.23.14-.32.39-.32h4.4c.31,0,.37.11.31.37-.14.63-.27,1.26-.4,1.89,2.79-3.26,8.49-3,10.22,1,.25-.3.48-.6.74-.87A7.22,7.22,0,0,1,23.76.09a6.65,6.65,0,0,1,3.47.45,5.1,5.1,0,0,1,3.11,4.4A9.59,9.59,0,0,1,30,8c-.67,3.23-1.35,6.47-2,9.7-.17.77-.17.77-.95.77H23.31c-.23,0-.37,0-.3-.32.34-1.56.65-3.14,1-4.71.41-2,.83-4,1.23-6.06a3.19,3.19,0,0,0-.13-1.83,1.87,1.87,0,0,0-1.51-1.18,4.68,4.68,0,0,0-5,3.08c-.3,1.24-.51,2.5-.77,3.76-.37,1.79-.76,3.59-1.14,5.39-.11.52-.24,1-.33,1.57,0,.22-.11.3-.35.3H11.71c-.29,0-.3-.1-.26-.33.2-.9.38-1.8.57-2.7q.59-2.85,1.18-5.69c.19-.9.4-1.8.52-2.71.19-1.47-.53-2.73-2.2-2.71a4.66,4.66,0,0,0-4.4,3c-.29.94-.44,1.91-.64,2.87q-.57,2.7-1.13,5.4c-.18.84-.37,1.67-.53,2.51,0,.22-.13.28-.34.28H0"/><path class="cls-1" d="M69.11,12.24c.25-1.22.5-2.43.73-3.65a.3.3,0,0,1,.35-.28h1.56c.23,0,.31,0,.26.3q-1,4.64-1.93,9.29c-.07.34-.18.49-.55.45s-1,0-1.42,0c-.24,0-.29-.06-.24-.3.25-1.19.48-2.39.73-3.57.05-.22,0-.28-.21-.28q-2,0-4,0c-.25,0-.29.13-.33.31-.23,1.15-.47,2.31-.69,3.47-.05.27-.15.4-.46.38-.49,0-1,0-1.49,0-.22,0-.3,0-.24-.29q1-4.62,1.92-9.26c.07-.37.2-.53.6-.49a12,12,0,0,0,1.34,0c.24,0,.34,0,.28.31-.25,1.2-.49,2.4-.73,3.61.07.15.21.09.33.09h3.87C68.89,12.33,69,12.38,69.11,12.24Z"/><path class="cls-1" d="M40.52,18.24l1.11-1.8,4.86-7.9a.42.42,0,0,1,.43-.23c.6,0,1.21,0,1.82,0a.32.32,0,0,1,.37.31q.54,2.78,1.11,5.55c.24,1.23.48,2.46.74,3.68.06.3,0,.42-.32.4-.56,0-1.12,0-1.68,0-.25,0-.35-.08-.38-.32s-.15-.73-.22-1.1a.29.29,0,0,0-.34-.29c-1.25,0-2.49,0-3.73,0a.41.41,0,0,0-.39.22c-.24.41-.5.8-.73,1.22a.46.46,0,0,1-.47.27C42,18.23,41.31,18.24,40.52,18.24Zm6.75-6.95-2.21,3.58h2.15c.77,0,.77,0,.62-.75-.17-.91-.36-1.82-.56-2.83Z"/><path class="cls-1" d="M55.82,18.31A5.77,5.77,0,0,1,52,16.94c-.23-.2-.32-.35,0-.59a8.86,8.86,0,0,0,1-.89c.16-.16.24-.15.42,0a3.79,3.79,0,0,0,3.33,1A1.7,1.7,0,0,0,58,15.57a.68.68,0,0,0-.4-1.05c-.76-.31-1.58-.41-2.35-.69a9.19,9.19,0,0,1-.86-.36c-1.36-.68-1.35-2.13-.8-3.26a3.61,3.61,0,0,1,2.68-1.93,5.32,5.32,0,0,1,4.62,1.06c.18.14.24.24,0,.43s-.63.66-.93,1c-.13.15-.22.21-.41.05A3.83,3.83,0,0,0,57.64,10a2.05,2.05,0,0,0-2.09.81.7.7,0,0,0,.37,1.14,20.62,20.62,0,0,0,2.17.62,5.21,5.21,0,0,1,1,.43,2,2,0,0,1,1.09,2.28,3.42,3.42,0,0,1-2.31,2.69A5.28,5.28,0,0,1,55.82,18.31Z"/><path class="cls-1" d="M36.34,18.3a4.41,4.41,0,0,1-4.66-4.82,6.22,6.22,0,0,1,4.55-5.12,5.09,5.09,0,0,1,4.53.78c.82.61.81.63,0,1.22l-.21.16c-.25.18-.46.44-.73.51s-.42-.33-.66-.49a2.77,2.77,0,0,0-2.74-.22,3.91,3.91,0,0,0-2.59,3.35,2.42,2.42,0,0,0,3.43,2.49,3.78,3.78,0,0,0,1.29-.78c.19-.17.27-.13.41,0,.31.37.62.74,1,1.09.18.19.12.27-.05.4A6.5,6.5,0,0,1,36.34,18.3Z"/><path class="cls-1" d="M74,8.43h2.29l-1.56,8.05h5l-.37,1.87H72Z"/><path class="cls-1" d="M82.51,8.43H84.8l-1.92,9.92h-2.3Z"/><path class="cls-1" d="M92.92,13.23H95l-.79,4a7.33,7.33,0,0,1-2,.94,7.75,7.75,0,0,1-2.2.32,5.18,5.18,0,0,1-2.65-.65A3.77,3.77,0,0,1,85.75,16a4.64,4.64,0,0,1-.18-2.64,6,6,0,0,1,1.21-2.64,6.43,6.43,0,0,1,2.31-1.83A6.58,6.58,0,0,1,92,8.26a5.55,5.55,0,0,1,2.28.44A3.6,3.6,0,0,1,95.84,10L94.1,11.33a2.78,2.78,0,0,0-2.34-1.12,4,4,0,0,0-1.77.4,3.78,3.78,0,0,0-1.36,1.12,3.88,3.88,0,0,0-.73,1.66A3,3,0,0,0,88,15a2.21,2.21,0,0,0,.92,1.12,2.94,2.94,0,0,0,1.59.41,4.29,4.29,0,0,0,1.86-.42Z"/><path class="cls-1" d="M107.16,8.43l-1.92,9.92h-2.3l.79-4.07h-4.5l-.79,4.07H96.15l1.93-9.92h2.29l-.76,3.91h4.5l.76-3.91Z"/><path class="cls-1" d="M111.21,10.3H108l.37-1.86H117l-.37,1.86H113.5l-1.56,8.05h-2.29Z"/></g></g></svg>