<svg id="Layer_1" data-name="Layer 1" xmlns="http://www.w3.org/2000/svg" xmlns:xlink="http://www.w3.org/1999/xlink" viewBox="0 0 491.17 494.2"><defs><style>.cls-1{fill:none;}.cls-2{fill:url(#linear-gradient);}.cls-3{clip-path:url(#clip-path);}.cls-4{fill:#fff;}</style><linearGradient id="linear-gradient" x1="2778.22" y1="139.01" x2="2784.86" y2="131.72" gradientTransform="matrix(65, 0, 0, -65, -180544, 9058)" gradientUnits="userSpaceOnUse"><stop offset="0" stop-color="#127daf"/><stop offset="0.06" stop-color="#107da5"/><stop offset="0.35" stop-color="#097e7e"/><stop offset="0.61" stop-color="#047f62"/><stop offset="0.83" stop-color="#017f51"/><stop offset="1" stop-color="#007f4b"/></linearGradient><clipPath id="clip-path"><path class="cls-1" d="M59.8,0H491.08a0,0,0,0,1,0,0V435.36a59.8,59.8,0,0,1-59.8,59.8H59.8A59.8,59.8,0,0,1,0,435.36V59.8A59.8,59.8,0,0,1,59.8,0Z"/></clipPath></defs><title>mcashlight</title><g id="Mask"><path id="path-2" class="cls-2" d="M55.21,2C24.72,2,0,29.23,0,62.77V432.39c0,33.54,24.72,60.73,55.21,60.73H435.87c30.49,0,55.21-27.19,55.21-60.73V62.77C491.08,29.23,466.36,2,435.87,2Z"/></g><g class="cls-3"><polygon class="cls-4" points="83.31 317.03 77.39 345.4 48.42 345.4 54.35 317.03 83.31 317.03"/><polygon class="cls-4" points="162.22 294.33 133.22 294.33 128.49 317.03 157.48 317.03 162.22 294.33"/><path class="cls-4" d="M572.73,214.65H187.25a46,46,0,0,0-45,36.55L139.15,266h29L170,257a17.67,17.67,0,0,1,17.23-14H545.69L514.36,390a17.69,17.69,0,0,1-17.22,13.93h-30.7l-6,28.37h36.74a45.94,45.94,0,0,0,45-36.37l36.94-173.39A6.47,6.47,0,0,0,572.73,214.65Z"/><polygon class="cls-4" points="83.31 317.03 77.39 345.4 122.53 345.4 128.49 317.03 83.31 317.03"/><path class="cls-4" d="M411.06,364.32H118.56l4-18.92h29l6-28.37H413.13a6.46,6.46,0,0,1,6.32,7.83Z"/><polygon class="cls-4" points="406.91 383.7 114.5 383.7 116.6 373.77 409.04 373.77 406.91 383.7"/><path class="cls-4" d="M437.44,403.88l-6,28.37H396.56l-4.88,22.95-6.05,28.38-3.12,14.67a46,46,0,0,1-45,36.4H-47.26a6.51,6.51,0,0,1-6.35-7.83L-17.35,353.6a46,46,0,0,1,45-36.57h26.7L48.42,345.4H27.65a17.7,17.7,0,0,0-17.23,14L-20.3,506.28H337.54a17.72,17.72,0,0,0,17.22-13.94l1.88-8.76,6-28.38,4.88-22.95H112.34a6.48,6.48,0,0,1-6.35-7.8l6.55-31.27H404.9l-2.27,10.7Z"/><polygon class="cls-4" points="157.48 317.03 151.53 345.4 122.53 345.4 128.49 317.03 157.48 317.03"/><polygon class="cls-4" points="466.44 403.88 460.4 432.25 431.4 432.25 437.44 403.88 466.44 403.88"/><polygon class="cls-4" points="168.15 265.95 162.22 294.33 133.22 294.33 139.15 265.95 168.15 265.95"/><polyline class="cls-4" points="391.68 455.2 362.68 455.2 356.63 483.58 385.63 483.58"/></g></svg>